<?xml version="1.0" encoding="utf-8"?>
<!-- Generator: Adobe Illustrator 16.0.0, SVG Export Plug-In . SVG Version: 6.00 Build 0)  -->
<!DOCTYPE svg PUBLIC "-//W3C//DTD SVG 1.1//EN" "http://www.w3.org/Graphics/SVG/1.1/DTD/svg11.dtd">
<svg version="1.1" id="Layer_1" xmlns="http://www.w3.org/2000/svg" xmlns:xlink="http://www.w3.org/1999/xlink" x="0px" y="0px"
	 width="512px" height="512px" viewBox="0 0 512 512" enable-background="new 0 0 512 512" xml:space="preserve">
<line fill="none" stroke="#388C95" stroke-width="16" stroke-linecap="round" stroke-linejoin="round" stroke-miterlimit="10" x1="240" y1="122.4" x2="274.4" y2="156.8"/>
<line fill="none" stroke="#388C95" stroke-width="16" stroke-linecap="round" stroke-linejoin="round" stroke-miterlimit="10" x1="274.4" y1="122.4" x2="240" y2="156.8"/>
<g>
	<defs>
		<rect id="SVGID_1_" width="512" height="512"/>
	</defs>
	<clipPath id="SVGID_2_">
		<use xlink:href="#SVGID_1_"  overflow="visible"/>
	</clipPath>
	
		<circle clip-path="url(#SVGID_2_)" fill="none" stroke="#388C95" stroke-width="16" stroke-linecap="round" stroke-linejoin="round" stroke-miterlimit="10" cx="346.4" cy="211.2" r="17.6"/>
	
		<path clip-path="url(#SVGID_2_)" fill="none" stroke="#FFFFFF" stroke-width="16" stroke-linecap="round" stroke-linejoin="round" stroke-miterlimit="10" d="
		M322.4,118.4l20.8-15.2C328,200.8,232,216,232,216"/>
</g>
<line fill="none" stroke="#FFFFFF" stroke-width="16" stroke-linecap="round" stroke-linejoin="round" stroke-miterlimit="10" x1="359.2" y1="124.8" x2="344" y2="103.2"/>
<g>
	<defs>
		<rect id="SVGID_3_" width="512" height="512"/>
	</defs>
	<clipPath id="SVGID_4_">
		<use xlink:href="#SVGID_3_"  overflow="visible"/>
	</clipPath>
	
		<path clip-path="url(#SVGID_4_)" fill="none" stroke="#FFFFFF" stroke-width="16" stroke-linecap="round" stroke-linejoin="round" stroke-miterlimit="10" d="
		M320,456v-68.8c0,0,75.2-40,100-146.4c17.6-75.2-3.2-129.6-50.4-164c-24.8-16-55.199-21.6-81.6-21.6c-20.8,0-40.8,3.2-54.4,7.2
		c-44.8,12.8-80,52.8-109.6,142.4c-9.6,29.6-40.8,51.2-32.8,60c8.8,8.8,21.6,10.4,21.6,10.4s11.2,21.6-12,70.399
		c-12.8,26.4,76,48,76,48V456"/>
</g>
</svg>
