<?xml version="1.0" encoding="utf-8"?>
<!-- Generator: Adobe Illustrator 16.0.0, SVG Export Plug-In . SVG Version: 6.00 Build 0)  -->
<!DOCTYPE svg PUBLIC "-//W3C//DTD SVG 1.1//EN" "http://www.w3.org/Graphics/SVG/1.1/DTD/svg11.dtd">
<svg version="1.1" id="Layer_1" xmlns="http://www.w3.org/2000/svg" xmlns:xlink="http://www.w3.org/1999/xlink" x="0px" y="0px"
	 width="512px" height="512px" viewBox="0 0 512 512" enable-background="new 0 0 512 512" xml:space="preserve">
<g>
	<defs>
		<rect id="SVGID_1_" width="512" height="512"/>
	</defs>
	<clipPath id="SVGID_2_">
		<use xlink:href="#SVGID_1_"  overflow="visible"/>
	</clipPath>
	
		<path clip-path="url(#SVGID_2_)" fill="none" stroke="#FFFFFF" stroke-width="16" stroke-linecap="round" stroke-linejoin="round" stroke-miterlimit="10" d="
		M236.8,225.6c0,0-11.2-64.8-11.2-66.4c-8-38.4-44.8-44-62.4-44c-21.6,0-56.8,4.8-62.4,50.4l-9.6,60.8c-2.4,12.8,8,24.8,21.6,24.8
		h10.4c2.4,4,4,7.2,5.6,9.6c13.6,16.8,20,25.601,36.8,25.601c15.2,0,20.8-7.2,34.4-28c1.6-2.4,2.4-4.8,4-7.2h10.4
		C228.8,250.4,238.4,239.2,236.8,225.6z"/>
	
		<path clip-path="url(#SVGID_2_)" fill="none" stroke="#388C95" stroke-width="16" stroke-linecap="round" stroke-linejoin="round" stroke-miterlimit="10" d="
		M164.8,388L140,350.4l-27.2,8.8l4.8-50.4c0,0-48.8,15.2-66.4,20c-17.6,4.8-20.8,42.4-20.8,70.4"/>
	
		<path clip-path="url(#SVGID_2_)" fill="none" stroke="#388C95" stroke-width="16" stroke-linecap="round" stroke-linejoin="round" stroke-miterlimit="10" d="
		M481.6,405.6c0-28-3.199-68-20.8-72.8c-16.8-4.8-76.8-20-76.8-20L336.8,362.4L289.6,312.8c0,0-61.6,15.2-78.399,20
		c-17.6,4.8-21.6,44.8-21.6,72.8"/>
	
		<path clip-path="url(#SVGID_2_)" fill="none" stroke="#FFFFFF" stroke-width="16" stroke-linecap="round" stroke-linejoin="round" stroke-miterlimit="10" d="
		M396.8,150.4c-8-37.6-44-44-61.6-44c-21.601,0-56,4.8-61.601,49.6c-4,34.4,12,79.2,23.2,94.4c12.8,16.8,24.8,24.8,41.601,24.8
		c15.199,0,25.6-7.2,39.199-27.2C389.6,229.6,403.2,182.4,396.8,150.4z"/>
</g>
</svg>
