<?xml version="1.0" encoding="utf-8"?>
<!-- Generator: Adobe Illustrator 16.0.0, SVG Export Plug-In . SVG Version: 6.00 Build 0)  -->
<!DOCTYPE svg PUBLIC "-//W3C//DTD SVG 1.1//EN" "http://www.w3.org/Graphics/SVG/1.1/DTD/svg11.dtd">
<svg version="1.1" id="Layer_1" xmlns="http://www.w3.org/2000/svg" xmlns:xlink="http://www.w3.org/1999/xlink" x="0px" y="0px"
	 width="512px" height="512px" viewBox="0 0 512 512" enable-background="new 0 0 512 512" xml:space="preserve">
<g>
	<defs>
		<rect id="SVGID_1_" width="512" height="512"/>
	</defs>
	<clipPath id="SVGID_2_">
		<use xlink:href="#SVGID_1_"  overflow="visible"/>
	</clipPath>
	
		<path clip-path="url(#SVGID_2_)" fill="none" stroke="#FFFFFF" stroke-width="16" stroke-linecap="round" stroke-linejoin="round" stroke-miterlimit="10" d="
		M332,371.2c20,6.399,32,16,32,26.399c0,20.801-48.8,37.601-108.8,37.601S146.4,418.4,146.4,397.6c0-10.399,12-19.199,31.2-26.399"
		/>
</g>
<line fill="none" stroke="#FFFFFF" stroke-width="16" stroke-linecap="round" stroke-linejoin="round" stroke-miterlimit="10" x1="256" y1="440" x2="256" y2="480"/>
<g>
	<defs>
		<rect id="SVGID_3_" width="512" height="512"/>
	</defs>
	<clipPath id="SVGID_4_">
		<use xlink:href="#SVGID_3_"  overflow="visible"/>
	</clipPath>
	
		<line clip-path="url(#SVGID_4_)" fill="none" stroke="#FFFFFF" stroke-width="16" stroke-linecap="round" stroke-linejoin="round" stroke-miterlimit="10" x1="256" y1="481.6" x2="298.4" y2="464"/>
	
		<line clip-path="url(#SVGID_4_)" fill="none" stroke="#FFFFFF" stroke-width="16" stroke-linecap="round" stroke-linejoin="round" stroke-miterlimit="10" x1="256" y1="481.6" x2="214.4" y2="464"/>
</g>
<line fill="none" stroke="#FFFFFF" stroke-width="16" stroke-linecap="round" stroke-linejoin="round" stroke-miterlimit="10" x1="368" y1="400" x2="440" y2="400"/>
<line fill="none" stroke="#FFFFFF" stroke-width="16" stroke-linecap="round" stroke-linejoin="round" stroke-miterlimit="10" x1="440" y1="400" x2="412" y2="377.6"/>
<line fill="none" stroke="#FFFFFF" stroke-width="16" stroke-linecap="round" stroke-linejoin="round" stroke-miterlimit="10" x1="440" y1="400" x2="412" y2="425.6"/>
<line fill="none" stroke="#FFFFFF" stroke-width="16" stroke-linecap="round" stroke-linejoin="round" stroke-miterlimit="10" x1="144" y1="400" x2="72" y2="400"/>
<line fill="none" stroke="#FFFFFF" stroke-width="16" stroke-linecap="round" stroke-linejoin="round" stroke-miterlimit="10" x1="72" y1="400" x2="100" y2="377.6"/>
<line fill="none" stroke="#FFFFFF" stroke-width="16" stroke-linecap="round" stroke-linejoin="round" stroke-miterlimit="10" x1="72" y1="400" x2="100" y2="425.6"/>
<g>
	<defs>
		<rect id="SVGID_5_" width="512" height="512"/>
	</defs>
	<clipPath id="SVGID_6_">
		<use xlink:href="#SVGID_5_"  overflow="visible"/>
	</clipPath>
	<path clip-path="url(#SVGID_6_)" fill="#FFFFFF" d="M252.8,36c-11.2,0-30.4,2.4-33.6,27.2c-2.4,19.2,6.4,43.2,12.8,51.2
		c7.2,8.8,13.6,13.6,22.4,13.6c8,0,13.6-4,21.6-15.2c7.2-10.4,14.4-36,10.4-52.8C281.6,40,261.6,36,252.8,36 M252.8,52
		c7.2,0,16,1.6,17.601,11.2c2.399,12.8-4,34.4-8,40.8c-5.601,8-7.2,8-8,8c-1.6,0-4,0-9.6-7.2c-4-4.8-11.2-24.8-9.6-39.2
		C236,56.8,239.2,52,252.8,52"/>
	
		<path clip-path="url(#SVGID_6_)" fill="none" stroke="#388C95" stroke-width="16" stroke-linecap="round" stroke-linejoin="round" stroke-miterlimit="10" d="
		M312,264v-97.6c0-6.4-2.4-12-8-13.6l-24-9.6l-24.8,28l-24.8-28l-27.2,9.6c-5.6,1.6-11.2,7.2-11.2,13.6V264"/>
</g>
<line fill="none" stroke="#388C95" stroke-width="16" stroke-linecap="round" stroke-linejoin="round" stroke-miterlimit="10" x1="232" y1="240" x2="232" y2="400"/>
<line fill="none" stroke="#388C95" stroke-width="16" stroke-linecap="round" stroke-linejoin="round" stroke-miterlimit="10" x1="272" y1="240" x2="272" y2="400"/>
</svg>
