<?xml version="1.0" encoding="utf-8"?>
<!-- Generator: Adobe Illustrator 16.0.0, SVG Export Plug-In . SVG Version: 6.00 Build 0)  -->
<!DOCTYPE svg PUBLIC "-//W3C//DTD SVG 1.1//EN" "http://www.w3.org/Graphics/SVG/1.1/DTD/svg11.dtd">
<svg version="1.1" id="Layer_1" xmlns="http://www.w3.org/2000/svg" xmlns:xlink="http://www.w3.org/1999/xlink" x="0px" y="0px"
	 width="512px" height="512px" viewBox="0 0 512 512" enable-background="new 0 0 512 512" xml:space="preserve">
<g>
	<defs>
		<rect id="SVGID_1_" width="512" height="512"/>
	</defs>
	<clipPath id="SVGID_2_">
		<use xlink:href="#SVGID_1_"  overflow="visible"/>
	</clipPath>
	
		<path clip-path="url(#SVGID_2_)" fill="none" stroke="#FFFFFF" stroke-width="16" stroke-linecap="round" stroke-linejoin="round" stroke-miterlimit="10" d="
		M222.4,367.2c-1.6-12.8-12.8-21.601-25.6-20.8c-2.4,0-12.8,10.399-14.4,11.199c4.8-4.8,16-21.6,15.2-28.8
		C196,316,184.8,307.2,172,308c-2.4,0-13.6,12-16,13.6c3.2-4.8,12.8-20.8,12-27.199c-1.6-12.801-12.8-21.601-25.6-20.801
		c-5.6,0.801-17.6,14.4-20.8,18.4c0,0,7.2-12,7.2-12.8c-1.6-12-12-20.8-24.8-20c-5.6,0.8-11.2,3.2-14.4,8c-0.8,0.8-0.8,0.8-1.6,1.6
		c-6.4,8-16,20.8-16,20.8c-4.8,8-4.8,13.601,0,23.2c5.6,9.601,26.4,36.8,44,54.4c17.6,16.8,50.4,43.2,56.8,47.2
		c6.4,4,17.6,1.6,20.8-2.4c3.2-4,19.2-21.6,23.2-27.2C220.8,380,222.4,374.4,222.4,367.2z"/>
	
		<path clip-path="url(#SVGID_2_)" fill="none" stroke="#388C95" stroke-width="16" stroke-linecap="round" stroke-linejoin="round" stroke-miterlimit="10" d="
		M203.2,122.4c0,0-75.2-33.6-90.4-40.8c-14.4-7.2-61.6,49.6-76,76.8c-14.4,27.2-20.8,58.4-11.2,66.4s34.4,28,34.4,28"/>
	
		<path clip-path="url(#SVGID_2_)" fill="none" stroke="#388C95" stroke-width="16" stroke-linecap="round" stroke-linejoin="round" stroke-miterlimit="10" d="
		M230.4,415.2c13.6,10.399,43.2,21.6,63.2-1.601c28,13.601,49.601-3.199,52-23.199c25.601-0.801,41.601-16,41.601-28
		C405.6,359.2,424.8,349.6,417.6,320"/>
	
		<path clip-path="url(#SVGID_2_)" fill="none" stroke="#FFFFFF" stroke-width="16" stroke-linecap="round" stroke-linejoin="round" stroke-miterlimit="10" d="
		M174.4,168.8c9.6-3.2,52.8-23.2,65.6-30.4c12.8-7.2,23.2-12,45.6-4.8C308,140.8,356,152,356,152s43.2-17.6,57.6-24.8
		C428,120,508,244,494.4,253.6c-13.601,9.6-44.801,37.6-84.801,37.6c-24-16.8-117.6-84-124-90.4c-7.199-5.6-6.399-12.8-18.399-6.4
		c-12.8,7.2-52,22.4-75.2,14.4S147.2,176.8,174.4,168.8z"/>
</g>
<line fill="none" stroke="#388C95" stroke-width="16" stroke-linecap="round" stroke-linejoin="round" stroke-miterlimit="10" x1="296.8" y1="414.4" x2="260" y2="386.4"/>
<line fill="none" stroke="#388C95" stroke-width="16" stroke-linecap="round" stroke-linejoin="round" stroke-miterlimit="10" x1="345.6" y1="390.4" x2="295.2" y2="353.6"/>
<line fill="none" stroke="#388C95" stroke-width="16" stroke-linecap="round" stroke-linejoin="round" stroke-miterlimit="10" x1="387.2" y1="361.6" x2="331.2" y2="321.6"/>
</svg>
