<?xml version="1.0" encoding="utf-8"?>
<!-- Generator: Adobe Illustrator 19.1.0, SVG Export Plug-In . SVG Version: 6.00 Build 0)  -->
<svg version="1.1" id="Laag_1" xmlns="http://www.w3.org/2000/svg" xmlns:xlink="http://www.w3.org/1999/xlink" x="0px" y="0px"
	 width="596.6px" height="150.8px" viewBox="0 0 596.6 150.8" style="enable-background:new 0 0 596.6 150.8;" xml:space="preserve"
	>
<style type="text/css">
	.st0{fill:#3C4C5F;}
</style>
<g>
	<path class="st0" d="M39.2,117.6h47v33.2H0V0h39.2V117.6z"/>
	<path class="st0" d="M138.2,150.8H99V0h39.2V150.8z"/>
	<path class="st0" d="M203,33.2v25.2h43v33.2h-43v59.2h-39.2V0h86.6v33.2H203z"/>
	<path class="st0" d="M311.4,33.2v25.2h44.2v33.2h-44.2v26H358v33.2h-85.8V0H358v33.2H311.4z"/>
	<path class="st0" d="M421.4,117.6h47v33.2h-86.2V0h39.2V117.6z"/>
	<path class="st0" d="M446.2,0h47l28.2,41l28.2-41h47L541,78.4v72.4h-39.2V78.4L446.2,0z"/>
</g>
</svg>
