<?xml version="1.0" encoding="UTF-8" standalone="no"?>
<svg width="1098px" height="391px" viewBox="0 0 1098 391" version="1.1" xmlns="http://www.w3.org/2000/svg" xmlns:xlink="http://www.w3.org/1999/xlink" xmlns:sketch="http://www.bohemiancoding.com/sketch/ns">
    <!-- Generator: Sketch 3.5.1 (25234) - http://www.bohemiancoding.com/sketch -->
    <title>6</title>
    <desc>Created with Sketch.</desc>
    <defs></defs>
    <g id="Page-1" stroke="none" stroke-width="1" fill="none" fill-rule="evenodd" sketch:type="MSPage">
        <g id="31-swarm" sketch:type="MSArtboardGroup" transform="translate(-144.000000, -238.000000)" fill-opacity="0.4" fill="#3C354D">
            <g id="Swarm" sketch:type="MSLayerGroup" transform="translate(144.000000, 120.000000)">
                <g id="6" transform="translate(0.000000, 118.000000)" sketch:type="MSShapeGroup">
                    <circle id="Oval-12" cx="703" cy="155" r="5"></circle>
                    <circle id="Oval-12" cx="433" cy="386" r="5"></circle>
                    <circle id="Oval-12" cx="303" cy="195" r="5"></circle>
                    <circle id="Oval-12" cx="112" cy="364" r="4"></circle>
                    <circle id="Oval-12" cx="522" cy="75" r="4"></circle>
                    <path d="M932,299 C934.209139,299 936,297.209139 936,295 C936,292.790861 934.209139,291 932,291 C929.790861,291 928,292.790861 928,295 C928,297.209139 929.790861,299 932,299 Z" id="Oval-12"></path>
                    <circle id="Oval-12" cx="1023" cy="106" r="5"></circle>
                    <circle id="Oval-12" cx="1093" cy="246" r="5"></circle>
                    <path d="M5,232 C7.76142375,232 10,229.761424 10,227 C10,224.238576 7.76142375,222 5,222 C2.23857625,222 0,224.238576 0,227 C0,229.761424 2.23857625,232 5,232 Z" id="Oval-12"></path>
                    <path d="M353,10 C355.761424,10 358,7.76142375 358,5 C358,2.23857625 355.761424,0 353,0 C350.238576,0 348,2.23857625 348,5 C348,7.76142375 350.238576,10 353,10 Z" id="Oval-12"></path>
                </g>
            </g>
        </g>
    </g>
</svg>