<?xml version="1.0" encoding="UTF-8" standalone="no"?>
<svg width="896px" height="370px" viewBox="0 0 896 370" version="1.1" xmlns="http://www.w3.org/2000/svg" xmlns:xlink="http://www.w3.org/1999/xlink" xmlns:sketch="http://www.bohemiancoding.com/sketch/ns">
    <!-- Generator: Sketch 3.5.1 (25234) - http://www.bohemiancoding.com/sketch -->
    <title>x</title>
    <desc>Created with Sketch.</desc>
    <defs></defs>
    <g id="Page-1" stroke="none" stroke-width="1" fill="none" fill-rule="evenodd" sketch:type="MSPage">
        <g id="31-swarm" sketch:type="MSArtboardGroup" transform="translate(-222.000000, -253.000000)" stroke="#FFFFFF" stroke-width="2" stroke-linecap="round" stroke-linejoin="round">
            <g id="Swarm" sketch:type="MSLayerGroup" transform="translate(144.000000, 120.000000)">
                <g id="x" transform="translate(79.000000, 134.000000)" sketch:type="MSShapeGroup">
                    <path d="M161,21 L165,25 M165,21 L161,25" id="Line" transform="translate(163.000000, 23.000000) rotate(-10.000000) translate(-163.000000, -23.000000) "></path>
                    <path d="M281,281 L285,285 M285,281 L281,285" id="Line" transform="translate(283.000000, 283.000000) rotate(-340.000000) translate(-283.000000, -283.000000) "></path>
                    <path d="M611,361 L617,367 M617,361 L611,367" id="Line" transform="translate(614.000000, 364.000000) rotate(-350.000000) translate(-614.000000, -364.000000) "></path>
                    <path d="M881,11 L887,17 M887,11 L881,17" id="Line" transform="translate(884.000000, 14.000000) rotate(-8.000000) translate(-884.000000, -14.000000) "></path>
                    <path d="M601,1 L605,5 M605,1 L601,5" id="Line" transform="translate(603.000000, 3.000000) rotate(-350.000000) translate(-603.000000, -3.000000) "></path>
                    <path d="M889,241 L893,245 M893,241 L889,245" id="Line" transform="translate(891.000000, 243.000000) rotate(-2.000000) translate(-891.000000, -243.000000) "></path>
                    <path d="M1,191 L7,197 M7,191 L1,197" id="Line" transform="translate(4.000000, 194.000000) rotate(-348.000000) translate(-4.000000, -194.000000) "></path>
                    <path d="M471,111 L475,115 M475,111 L471,115" id="Line" transform="translate(473.000000, 113.000000) rotate(-10.000000) translate(-473.000000, -113.000000) "></path>
                </g>
            </g>
        </g>
    </g>
</svg>