<?xml version="1.0" encoding="UTF-8" standalone="no"?>
<svg width="907px" height="423px" viewBox="0 0 907 423" version="1.1" xmlns="http://www.w3.org/2000/svg" xmlns:xlink="http://www.w3.org/1999/xlink" xmlns:sketch="http://www.bohemiancoding.com/sketch/ns">
    <!-- Generator: Sketch 3.5.1 (25234) - http://www.bohemiancoding.com/sketch -->
    <title>.</title>
    <desc>Created with Sketch.</desc>
    <defs></defs>
    <g id="Page-1" stroke="none" stroke-width="1" fill="none" fill-rule="evenodd" sketch:type="MSPage">
        <g id="31-swarm" sketch:type="MSArtboardGroup" transform="translate(-147.000000, -385.000000)" fill-opacity="0.2" fill="#000000">
            <g id="Swarm" sketch:type="MSLayerGroup" transform="translate(144.000000, 120.000000)">
                <g id="." transform="translate(3.000000, 265.000000)" sketch:type="MSShapeGroup">
                    <circle id="Oval-96" cx="1" cy="192" r="1"></circle>
                    <path d="M74,243 C74.5522847,243 75,242.552285 75,242 C75,241.447715 74.5522847,241 74,241 C73.4477153,241 73,241.447715 73,242 C73,242.552285 73.4477153,243 74,243 Z" id="Oval-96"></path>
                    <path d="M104,203 C104.552285,203 105,202.552285 105,202 C105,201.447715 104.552285,201 104,201 C103.447715,201 103,201.447715 103,202 C103,202.552285 103.447715,203 104,203 Z" id="Oval-96"></path>
                    <path d="M174,93 C174.552285,93 175,92.5522847 175,92 C175,91.4477153 174.552285,91 174,91 C173.447715,91 173,91.4477153 173,92 C173,92.5522847 173.447715,93 174,93 Z" id="Oval-96"></path>
                    <path d="M144,113 C144.552285,113 145,112.552285 145,112 C145,111.447715 144.552285,111 144,111 C143.447715,111 143,111.447715 143,112 C143,112.552285 143.447715,113 144,113 Z" id="Oval-96"></path>
                    <path d="M164,123 C164.552285,123 165,122.552285 165,122 C165,121.447715 164.552285,121 164,121 C163.447715,121 163,121.447715 163,122 C163,122.552285 163.447715,123 164,123 Z" id="Oval-96"></path>
                    <path d="M114,313 C114.552285,313 115,312.552285 115,312 C115,311.447715 114.552285,311 114,311 C113.447715,311 113,311.447715 113,312 C113,312.552285 113.447715,313 114,313 Z" id="Oval-96"></path>
                    <path d="M134,283 C134.552285,283 135,282.552285 135,282 C135,281.447715 134.552285,281 134,281 C133.447715,281 133,281.447715 133,282 C133,282.552285 133.447715,283 134,283 Z" id="Oval-96"></path>
                    <path d="M144,313 C144.552285,313 145,312.552285 145,312 C145,311.447715 144.552285,311 144,311 C143.447715,311 143,311.447715 143,312 C143,312.552285 143.447715,313 144,313 Z" id="Oval-96"></path>
                    <path d="M204,353 C204.552285,353 205,352.552285 205,352 C205,351.447715 204.552285,351 204,351 C203.447715,351 203,351.447715 203,352 C203,352.552285 203.447715,353 204,353 Z" id="Oval-96"></path>
                    <path d="M154,373 C154.552285,373 155,372.552285 155,372 C155,371.447715 154.552285,371 154,371 C153.447715,371 153,371.447715 153,372 C153,372.552285 153.447715,373 154,373 Z" id="Oval-96"></path>
                    <path d="M194,423 C194.552285,423 195,422.552285 195,422 C195,421.447715 194.552285,421 194,421 C193.447715,421 193,421.447715 193,422 C193,422.552285 193.447715,423 194,423 Z" id="Oval-96"></path>
                    <path d="M285,303 C285.552285,303 286,302.552285 286,302 C286,301.447715 285.552285,301 285,301 C284.447715,301 284,301.447715 284,302 C284,302.552285 284.447715,303 285,303 Z" id="Oval-96"></path>
                    <path d="M335,303 C335.552285,303 336,302.552285 336,302 C336,301.447715 335.552285,301 335,301 C334.447715,301 334,301.447715 334,302 C334,302.552285 334.447715,303 335,303 Z" id="Oval-96"></path>
                    <path d="M325,233 C325.552285,233 326,232.552285 326,232 C326,231.447715 325.552285,231 325,231 C324.447715,231 324,231.447715 324,232 C324,232.552285 324.447715,233 325,233 Z" id="Oval-96"></path>
                    <path d="M395,203 C395.552285,203 396,202.552285 396,202 C396,201.447715 395.552285,201 395,201 C394.447715,201 394,201.447715 394,202 C394,202.552285 394.447715,203 395,203 Z" id="Oval-96"></path>
                    <path d="M415,152 C415.552285,152 416,151.552285 416,151 C416,150.447715 415.552285,150 415,150 C414.447715,150 414,150.447715 414,151 C414,151.552285 414.447715,152 415,152 Z" id="Oval-96"></path>
                    <path d="M395,102 C395.552285,102 396,101.552285 396,101 C396,100.447715 395.552285,100 395,100 C394.447715,100 394,100.447715 394,101 C394,101.552285 394.447715,102 395,102 Z" id="Oval-96"></path>
                    <path d="M295,142 C295.552285,142 296,141.552285 296,141 C296,140.447715 295.552285,140 295,140 C294.447715,140 294,140.447715 294,141 C294,141.552285 294.447715,142 295,142 Z" id="Oval-96"></path>
                    <path d="M295,172 C295.552285,172 296,171.552285 296,171 C296,170.447715 295.552285,170 295,170 C294.447715,170 294,170.447715 294,171 C294,171.552285 294.447715,172 295,172 Z" id="Oval-96"></path>
                    <path d="M335,2 C335.552285,2 336,1.55228475 336,1 C336,0.44771525 335.552285,0 335,0 C334.447715,0 334,0.44771525 334,1 C334,1.55228475 334.447715,2 335,2 Z" id="Oval-96"></path>
                    <path d="M316,52 C316.552285,52 317,51.5522847 317,51 C317,50.4477153 316.552285,50 316,50 C315.447715,50 315,50.4477153 315,51 C315,51.5522847 315.447715,52 316,52 Z" id="Oval-96"></path>
                    <path d="M526,142 C526.552285,142 527,141.552285 527,141 C527,140.447715 526.552285,140 526,140 C525.447715,140 525,140.447715 525,141 C525,141.552285 525.447715,142 526,142 Z" id="Oval-96"></path>
                    <path d="M576,82 C576.552285,82 577,81.5522847 577,81 C577,80.4477153 576.552285,80 576,80 C575.447715,80 575,80.4477153 575,81 C575,81.5522847 575.447715,82 576,82 Z" id="Oval-96"></path>
                    <path d="M586,172 C586.552285,172 587,171.552285 587,171 C587,170.447715 586.552285,170 586,170 C585.447715,170 585,170.447715 585,171 C585,171.552285 585.447715,172 586,172 Z" id="Oval-96"></path>
                    <path d="M586,232 C586.552285,232 587,231.552285 587,231 C587,230.447715 586.552285,230 586,230 C585.447715,230 585,230.447715 585,231 C585,231.552285 585.447715,232 586,232 Z" id="Oval-96"></path>
                    <path d="M456,212 C456.552285,212 457,211.552285 457,211 C457,210.447715 456.552285,210 456,210 C455.447715,210 455,210.447715 455,211 C455,211.552285 455.447715,212 456,212 Z" id="Oval-96"></path>
                    <path d="M576,292 C576.552285,292 577,291.552285 577,291 C577,290.447715 576.552285,290 576,290 C575.447715,290 575,290.447715 575,291 C575,291.552285 575.447715,292 576,292 Z" id="Oval-96"></path>
                    <path d="M646,292 C646.552285,292 647,291.552285 647,291 C647,290.447715 646.552285,290 646,290 C645.447715,290 645,290.447715 645,291 C645,291.552285 645.447715,292 646,292 Z" id="Oval-96"></path>
                    <path d="M686,202 C686.552285,202 687,201.552285 687,201 C687,200.447715 686.552285,200 686,200 C685.447715,200 685,200.447715 685,201 C685,201.552285 685.447715,202 686,202 Z" id="Oval-96"></path>
                    <path d="M736,162 C736.552285,162 737,161.552285 737,161 C737,160.447715 736.552285,160 736,160 C735.447715,160 735,160.447715 735,161 C735,161.552285 735.447715,162 736,162 Z" id="Oval-96"></path>
                    <path d="M686,82 C686.552285,82 687,81.5522847 687,81 C687,80.4477153 686.552285,80 686,80 C685.447715,80 685,80.4477153 685,81 C685,81.5522847 685.447715,82 686,82 Z" id="Oval-96"></path>
                    <path d="M796,52 C796.552285,52 797,51.5522847 797,51 C797,50.4477153 796.552285,50 796,50 C795.447715,50 795,50.4477153 795,51 C795,51.5522847 795.447715,52 796,52 Z" id="Oval-96"></path>
                    <path d="M866,12 C866.552285,12 867,11.5522847 867,11 C867,10.4477153 866.552285,10 866,10 C865.447715,10 865,10.4477153 865,11 C865,11.5522847 865.447715,12 866,12 Z" id="Oval-96"></path>
                    <path d="M906,62 C906.552285,62 907,61.5522847 907,61 C907,60.4477153 906.552285,60 906,60 C905.447715,60 905,60.4477153 905,61 C905,61.5522847 905.447715,62 906,62 Z" id="Oval-96"></path>
                    <path d="M896,112 C896.552285,112 897,111.552285 897,111 C897,110.447715 896.552285,110 896,110 C895.447715,110 895,110.447715 895,111 C895,111.552285 895.447715,112 896,112 Z" id="Oval-96"></path>
                    <path d="M866,222 C866.552285,222 867,221.552285 867,221 C867,220.447715 866.552285,220 866,220 C865.447715,220 865,220.447715 865,221 C865,221.552285 865.447715,222 866,222 Z" id="Oval-96"></path>
                    <path d="M906,282 C906.552285,282 907,281.552285 907,281 C907,280.447715 906.552285,280 906,280 C905.447715,280 905,280.447715 905,281 C905,281.552285 905.447715,282 906,282 Z" id="Oval-96"></path>
                    <path d="M786,312 C786.552285,312 787,311.552285 787,311 C787,310.447715 786.552285,310 786,310 C785.447715,310 785,310.447715 785,311 C785,311.552285 785.447715,312 786,312 Z" id="Oval-96"></path>
                </g>
            </g>
        </g>
    </g>
</svg>