<?xml version="1.0" encoding="UTF-8" standalone="no"?>
<svg width="1023px" height="403px" viewBox="0 0 1023 403" version="1.1" xmlns="http://www.w3.org/2000/svg" xmlns:xlink="http://www.w3.org/1999/xlink" xmlns:sketch="http://www.bohemiancoding.com/sketch/ns">
    <!-- Generator: Sketch 3.5.1 (25234) - http://www.bohemiancoding.com/sketch -->
    <title>3</title>
    <desc>Created with Sketch.</desc>
    <defs></defs>
    <g id="Page-1" stroke="none" stroke-width="1" fill="none" fill-rule="evenodd" sketch:type="MSPage">
        <g id="31-swarm" sketch:type="MSArtboardGroup" transform="translate(-202.000000, -267.000000)" fill-opacity="0.3" fill="#000000">
            <g id="Swarm" sketch:type="MSLayerGroup" transform="translate(144.000000, 120.000000)">
                <g id="3" transform="translate(569.500000, 348.500000) scale(-1, 1) translate(-569.500000, -348.500000) translate(58.000000, 147.000000)" sketch:type="MSShapeGroup">
                    <circle id="Oval-12" cx="361.5" cy="151.5" r="1.5"></circle>
                    <circle id="Oval-12" cx="391.5" cy="91.5" r="1.5"></circle>
                    <circle id="Oval-12" cx="211.5" cy="181.5" r="1.5"></circle>
                    <circle id="Oval-12" cx="331.5" cy="231.5" r="1.5"></circle>
                    <circle id="Oval-12" cx="471.5" cy="201.5" r="1.5"></circle>
                    <circle id="Oval-12" cx="611.5" cy="51.5" r="1.5"></circle>
                    <circle id="Oval-12" cx="601.5" cy="251.5" r="1.5"></circle>
                    <circle id="Oval-12" cx="661.5" cy="141.5" r="1.5"></circle>
                    <circle id="Oval-12" cx="271.5" cy="351.5" r="1.5"></circle>
                    <circle id="Oval-12" cx="141.5" cy="81.5" r="1.5"></circle>
                    <circle id="Oval-12" cx="71.5" cy="351.5" r="1.5"></circle>
                    <circle id="Oval-12" cx="71.5" cy="161.5" r="1.5"></circle>
                    <circle id="Oval-12" cx="351.5" cy="21.5" r="1.5"></circle>
                    <circle id="Oval-12" cx="761.5" cy="21.5" r="1.5"></circle>
                    <circle id="Oval-12" cx="931.5" cy="51.5" r="1.5"></circle>
                    <circle id="Oval-12" cx="811.5" cy="181.5" r="1.5"></circle>
                    <circle id="Oval-12" cx="921.5" cy="141.5" r="1.5"></circle>
                    <circle id="Oval-12" cx="951.5" cy="251.5" r="1.5"></circle>
                    <circle id="Oval-12" cx="861.5" cy="391.5" r="1.5"></circle>
                    <circle id="Oval-12" cx="731.5" cy="401.5" r="1.5"></circle>
                    <circle id="Oval-12" cx="161.5" cy="401.5" r="1.5"></circle>
                    <circle id="Oval-12" cx="1001.5" cy="111.5" r="1.5"></circle>
                    <circle id="Oval-12" cx="1021.5" cy="121.5" r="1.5"></circle>
                    <circle id="Oval-12" cx="1.5" cy="321.5" r="1.5"></circle>
                    <circle id="Oval-12" cx="551.5" cy="1.5" r="1.5"></circle>
                </g>
            </g>
        </g>
    </g>
</svg>