<?xml version="1.0" encoding="UTF-8" standalone="no"?>
<svg width="20px" height="20px" viewBox="0 0 20 20" version="1.1" xmlns="http://www.w3.org/2000/svg" xmlns:xlink="http://www.w3.org/1999/xlink" xmlns:sketch="http://www.bohemiancoding.com/sketch/ns">
    <!-- Generator: Sketch 3.5.1 (25234) - http://www.bohemiancoding.com/sketch -->
    <title>archive</title>
    <desc>Created with Sketch.</desc>
    <defs></defs>
    <g id="Page-1" stroke="none" stroke-width="1" fill="none" fill-rule="evenodd" sketch:type="MSPage">
        <g id="archive" sketch:type="MSLayerGroup" fill="#000000">
            <g id="Page-1" sketch:type="MSShapeGroup">
                <g id="archive-icon">
                    <g id="Group-2">
                        <path d="M2,1.99079514 L2,1.99079514 L2,18.0092049 C2,18.0006719 1.99932973,18 1.99079514,18 L18.0092049,18 C18.0006719,18 18,18.0006703 18,18.0092049 L18,1.99079514 C18,1.99932813 18.0006703,2 18.0092049,2 L1.99079514,2 C1.99932813,2 2,1.99932973 2,1.99079514 L2,1.99079514 L2,1.99079514 Z M0,1.99079514 C0,0.891309342 0.898212381,0 1.99079514,0 L18.0092049,0 C19.1086907,0 20,0.898212381 20,1.99079514 L20,18.0092049 C20,19.1086907 19.1017876,20 18.0092049,20 L1.99079514,20 C0.891309342,20 0,19.1017876 0,18.0092049 L0,1.99079514 L0,1.99079514 L0,1.99079514 Z" id="Shape"></path>
                        <path d="M8.99961687,9 L8.99961687,5.523 C8.99961687,5.247 9.22361687,5 9.49961687,5 L10.4996169,5 C10.7756169,5 10.9996169,5.247 10.9996169,5.523 L10.9996169,9 L13.3396169,9 C13.9596169,9 14.1796169,9.441 13.8396169,9.941 L10.6196169,14.628 C10.2796169,15.128 9.71961687,15.11 9.37961687,14.62 L6.15961687,9.939 C5.81961687,9.451 6.03961687,9 6.65961687,9 L8.99961687,9 L8.99961687,9 Z" id="Fill-54"></path>
                        <rect id="Rectangle-378" x="2" y="14" width="4" height="4"></rect>
                        <rect id="Rectangle-378" x="14" y="14" width="4" height="4"></rect>
                    </g>
                </g>
            </g>
        </g>
    </g>
</svg>