<?xml version="1.0" encoding="utf-8"?>
<!-- Generator: Adobe Illustrator 16.0.0, SVG Export Plug-In . SVG Version: 6.00 Build 0)  -->
<!DOCTYPE svg PUBLIC "-//W3C//DTD SVG 1.1//EN" "http://www.w3.org/Graphics/SVG/1.1/DTD/svg11.dtd">
<svg version="1.1" id="Layer_1" xmlns="http://www.w3.org/2000/svg" xmlns:xlink="http://www.w3.org/1999/xlink" x="0px" y="0px"
	 width="200px" height="200px" viewBox="0 0 200 200" enable-background="new 0 0 200 200" xml:space="preserve">
<path fill-rule="evenodd" clip-rule="evenodd" d="M175,116.309c0-41.516-14.062-76.465-50.366-87.573
	C124.805,27.515,125,26.27,125,25c0-13.806-11.206-25-25-25S75,11.194,75,25c0,1.27,0.195,2.515,0.366,3.735
	C39.062,39.844,25,74.792,25,116.309V150h-6.25c-3.442,0-6.25,2.783-6.25,6.25v12.5c0,3.467,2.808,6.25,6.25,6.25H75
	c0,13.818,11.182,25,25,25c13.794,0,25-11.182,25-25h56.25c3.442,0,6.25-2.783,6.25-6.25v-12.5c0-3.467-2.808-6.25-6.25-6.25H175
	V116.309z"/>
</svg>
