<?xml version="1.0" encoding="utf-8"?>
<!-- Generator: Adobe Illustrator 16.0.0, SVG Export Plug-In . SVG Version: 6.00 Build 0)  -->
<!DOCTYPE svg PUBLIC "-//W3C//DTD SVG 1.1//EN" "http://www.w3.org/Graphics/SVG/1.1/DTD/svg11.dtd">
<svg version="1.1" id="Layer_1" xmlns="http://www.w3.org/2000/svg" xmlns:xlink="http://www.w3.org/1999/xlink" x="0px" y="0px"
	 width="200px" height="200px" viewBox="0 0 200 200" enable-background="new 0 0 200 200" xml:space="preserve">
<g>
	<path d="M43.75,25h12.5c3.455,0,6.25-2.808,6.25-6.25V6.25C62.5,2.783,59.705,0,56.25,0h-12.5c-3.442,0-6.25,2.783-6.25,6.25v12.5
		C37.5,22.192,40.308,25,43.75,25"/>
	<path d="M143.75,25h12.5c3.455,0,6.25-2.808,6.25-6.25V6.25c0-3.467-2.795-6.25-6.25-6.25h-12.5c-3.442,0-6.25,2.783-6.25,6.25
		v12.5C137.5,22.192,140.308,25,143.75,25"/>
	<path d="M187.5,0h-6.25C177.795,0,175,2.783,175,6.25v25c0,3.442-2.783,6.25-6.25,6.25h-37.5c-3.455,0-6.25-2.808-6.25-6.25v-25
		c0-3.467-2.783-6.25-6.25-6.25h-37.5C77.795,0,75,2.783,75,6.25v25c0,3.442-2.783,6.25-6.25,6.25h-37.5
		c-3.455,0-6.25-2.808-6.25-6.25v-25C25,2.783,22.217,0,18.75,0H12.5C5.604,0,0,5.591,0,12.5v175c0,6.885,5.604,12.5,12.5,12.5h175
		c6.909,0,12.5-5.615,12.5-12.5v-175C200,5.591,194.409,0,187.5,0 M175,175H25V62.5h150V175z"/>
	<path d="M84.961,148.364c2.186,2.173,5.688,2.173,7.861,0l55.555-55.933c2.16-2.173,2.16-5.713,0-7.886l-7.861-7.91
		c-2.174-2.173-5.677-2.173-7.85,0l-43.774,44.043l-21.546-19.922c-2.172-2.173-5.676-2.173-7.849,0l-7.874,7.935
		c-2.16,2.173-2.16,5.713,0,7.91L84.961,148.364z"/>
</g>
</svg>
