<?xml version="1.0" encoding="utf-8"?>
<!-- Generator: Adobe Illustrator 16.0.0, SVG Export Plug-In . SVG Version: 6.00 Build 0)  -->
<!DOCTYPE svg PUBLIC "-//W3C//DTD SVG 1.1//EN" "http://www.w3.org/Graphics/SVG/1.1/DTD/svg11.dtd">
<svg version="1.1" id="Layer_1" xmlns="http://www.w3.org/2000/svg" xmlns:xlink="http://www.w3.org/1999/xlink" x="0px" y="0px"
	 width="200px" height="200px" viewBox="0 0 200 200" enable-background="new 0 0 200 200" xml:space="preserve">
<path d="M75.002,162.498c-3.9,0-7.629-1.831-10.003-5.005l-26.896-35.875l-15.198,22.813c-3.839,5.737-11.602,7.275-17.339,3.467
	c-5.737-3.845-7.3-11.597-3.461-17.346l24.999-37.498c2.246-3.369,6-5.432,10.058-5.554c4.089,0.061,7.904,1.745,10.339,4.992
	l25.359,33.812l28.454-56.894c1.947-3.869,5.737-6.47,10.059-6.86c4.358-0.439,8.532,1.478,11.12,4.944l25.365,33.812l28.453-56.895
	c3.088-6.165,10.583-8.667,16.771-5.603c6.177,3.1,8.679,10.607,5.604,16.771l-37.499,74.996c-1.953,3.882-5.736,6.482-10.058,6.873
	c-4.358,0.365-8.533-1.478-11.133-4.956l-25.364-33.812l-28.442,56.896c-1.953,3.881-5.737,6.481-10.064,6.872
	C75.747,162.485,75.362,162.498,75.002,162.498"/>
</svg>
