<?xml version="1.0" encoding="utf-8"?>
<!-- Generator: Adobe Illustrator 16.0.0, SVG Export Plug-In . SVG Version: 6.00 Build 0)  -->
<!DOCTYPE svg PUBLIC "-//W3C//DTD SVG 1.1//EN" "http://www.w3.org/Graphics/SVG/1.1/DTD/svg11.dtd">
<svg version="1.1" id="Layer_1" xmlns="http://www.w3.org/2000/svg" xmlns:xlink="http://www.w3.org/1999/xlink" x="0px" y="0px"
	 width="200px" height="200px" viewBox="0 0 200 200" enable-background="new 0 0 200 200" xml:space="preserve">
<g>
	<path d="M12.5,50.307c-6.873,0-12.5,5.749-12.5,12.78v74.72c0,7.019,5.627,12.5,12.5,12.5H25v41.589
		c0,7.056,6.641,10.352,11.279,5.493l42.225-47.082H112.5c6.885,0,12.5-5.481,12.5-12.5v-74.72c0-7.031-5.615-12.78-12.5-12.78H12.5
		z"/>
	<path d="M87.5,0.307c-6.873,0-12.5,5.749-12.5,12.78v24.72h50c6.922,0,12.5,5.603,12.5,12.5v67.847l26.232,29.235
		c4.639,4.858,11.268,1.562,11.268-5.493v-41.589h12.5c6.885,0,12.5-5.481,12.5-12.5v-74.72c0-7.031-5.615-12.78-12.5-12.78H87.5z"
		/>
</g>
</svg>
