<?xml version="1.0" encoding="utf-8"?>
<!-- Generator: Adobe Illustrator 16.0.0, SVG Export Plug-In . SVG Version: 6.00 Build 0)  -->
<!DOCTYPE svg PUBLIC "-//W3C//DTD SVG 1.1//EN" "http://www.w3.org/Graphics/SVG/1.1/DTD/svg11.dtd">
<svg version="1.1" id="Layer_1" xmlns="http://www.w3.org/2000/svg" xmlns:xlink="http://www.w3.org/1999/xlink" x="0px" y="0px"
	 width="200px" height="200px" viewBox="0 0 200 200" enable-background="new 0 0 200 200" xml:space="preserve">
<path fill-rule="evenodd" clip-rule="evenodd" d="M198.153,60.65l-74.898,68.653c-0.195,0.195-0.5,0.122-0.72,0.293
	c-1.039,0.855-2.254,1.344-3.524,1.454c-0.104,0.012-0.189,0.061-0.299,0.061c-1.759,0.086-3.542-0.513-4.893-1.869l-36.966-30.71
	c-2.553-2.54-2.553-6.681,0-9.228c2.553-2.559,6.688-2.559,9.246,0l32.6,27.076l70.538-64.647c2.461-2.461,6.461-2.461,8.916,0
	C200.614,54.201,200.614,58.188,198.153,60.65 M137.583,24.948H25.016c-6.907,0-12.508,5.611-12.508,12.514v125.077
	c0,6.9,5.601,12.495,12.508,12.495h112.567c6.913,0,12.507-5.595,12.507-12.495v-25.015h12.508v25.015
	c0,13.814-11.2,25.015-25.015,25.015H25.016c-13.814,0-25.015-11.2-25.015-25.015V37.462c0-13.814,11.2-25.016,25.015-25.016
	h112.567c13.814,0,25.015,11.201,25.015,25.016H150.09C150.09,30.56,144.496,24.948,137.583,24.948"/>
</svg>
