<?xml version="1.0" encoding="utf-8"?>
<!-- Generator: Adobe Illustrator 16.0.0, SVG Export Plug-In . SVG Version: 6.00 Build 0)  -->
<!DOCTYPE svg PUBLIC "-//W3C//DTD SVG 1.1//EN" "http://www.w3.org/Graphics/SVG/1.1/DTD/svg11.dtd">
<svg version="1.1" id="Layer_1" xmlns="http://www.w3.org/2000/svg" xmlns:xlink="http://www.w3.org/1999/xlink" x="0px" y="0px"
	 width="200px" height="200px" viewBox="0 0 200 200" enable-background="new 0 0 200 200" xml:space="preserve">
<path fill-rule="evenodd" clip-rule="evenodd" d="M174.998,100.001l25,31.25l-25,31.249H131.25v25c0,6.897-5.592,12.5-12.5,12.5
	h-37.5c-6.898,0-12.5-5.603-12.5-12.5v-25H37.5v-62.499h31.25V87.498H25L0.002,56.249L25,24.999h43.75V12.494
	C68.75,5.591,74.352,0,81.25,0h37.5c6.908,0,12.5,5.591,12.5,12.494v12.505h31.248v62.499H131.25v12.503H174.998z M81.25,181.25
	c0,3.442,2.801,6.25,6.25,6.25h25c3.453,0,6.25-2.808,6.25-6.25V162.5h-37.5V181.25z M118.75,18.749c0-3.46-2.797-6.255-6.25-6.255
	h-25c-3.449,0-6.25,2.795-6.25,6.255v6.25h37.5V18.749z M149.998,74.999V37.487H31.25L12.5,56.249l18.75,18.75H149.998z
	 M81.25,100.001h37.5V87.498h-37.5V100.001z M50,112.489V150h118.748l18.75-18.749l-18.75-18.762H50z"/>
</svg>
