<?xml version="1.0" encoding="utf-8"?>
<!-- Generator: Adobe Illustrator 16.0.0, SVG Export Plug-In . SVG Version: 6.00 Build 0)  -->
<!DOCTYPE svg PUBLIC "-//W3C//DTD SVG 1.1//EN" "http://www.w3.org/Graphics/SVG/1.1/DTD/svg11.dtd">
<svg version="1.1" id="Layer_1" xmlns="http://www.w3.org/2000/svg" xmlns:xlink="http://www.w3.org/1999/xlink" x="0px" y="0px"
	 width="200px" height="200px" viewBox="0 0 200 200" enable-background="new 0 0 200 200" xml:space="preserve">
<path d="M100,0C44.775,0,0,44.775,0,100s44.775,100,100,100s100-44.775,100-100S155.225,0,100,0 M25,100
	c0-20.605,8.362-39.307,21.875-52.881c0.024,24.805,3.161,34.18,15.625,46.631c12.5,12.5,31.25,34.375,31.25,59.375
	c0,10.986,3.015,18.75,6.384,21.875H100C58.63,175,25,141.357,25,100 M126.843,170.02c9.889-11.353,21.582-29.419,13.782-45.02
	c-12.5-25-56.25-6.25-56.25-31.25S125,100,125,50c0-17.969-14.368-23.73-29.321-24.854C97.106,25.049,98.548,25,100,25
	c41.345,0,75,33.643,75,75C175,131.885,154.968,159.18,126.843,170.02"/>
</svg>
