<?xml version="1.0" encoding="UTF-8" standalone="no"?>
<svg width="36px" height="48px" viewBox="0 0 36 48" version="1.1" xmlns="http://www.w3.org/2000/svg" xmlns:xlink="http://www.w3.org/1999/xlink">
    <!-- Generator: Sketch 3.6.1 (26313) - http://www.bohemiancoding.com/sketch -->
    <title>icon_file</title>
    <desc>Created with Sketch.</desc>
    <defs></defs>
    <g id="Pages" stroke="none" stroke-width="1" fill="none" fill-rule="evenodd">
        <g id="icon_file">
            <g id="file">
                <path d="M0,3.00261497 C0,1.34431651 1.34308127,0 3.00138694,0 L22,0 L36,14.0013893 L36,44.9977643 C36,46.6558533 34.6544607,48 32.9925801,48 L3.00741988,48 C1.34646775,48 0,46.6661074 0,44.997385 L0,3.00261497 Z" id="Rectangle-32" fill="#999999"></path>
                <path d="M22,0 L36,14 L25.9931023,14 C23.7877728,14 22,12.2126701 22,10.0068977 L22,0 Z" id="Rectangle-33" fill="#666666"></path>
                <path d="M12.5585938,32.7910156 L11.0117188,32.7910156 L11.0117188,38 L9.22460938,38 L9.22460938,32.7910156 L8.24023438,32.7910156 L8.24023438,31.9296875 L9.22460938,31.4492188 L9.22460938,30.96875 C9.22460938,30.2226525 9.40820129,29.6777361 9.77539062,29.3339844 C10.14258,28.9902327 10.7304647,28.8183594 11.5390625,28.8183594 C12.1562531,28.8183594 12.7050757,28.9101553 13.1855469,29.09375 L12.7285156,30.40625 C12.3691388,30.2929682 12.0371109,30.2363281 11.7324219,30.2363281 C11.4785144,30.2363281 11.2949224,30.3115227 11.1816406,30.4619141 C11.0683588,30.6123054 11.0117188,30.8046863 11.0117188,31.0390625 L11.0117188,31.4492188 L12.5585938,31.4492188 L12.5585938,32.7910156 Z M13.5078125,29.7558594 C13.5078125,29.1738252 13.832028,28.8828125 14.4804688,28.8828125 C15.1289095,28.8828125 15.453125,29.1738252 15.453125,29.7558594 C15.453125,30.0332045 15.3720711,30.2490227 15.2099609,30.4033203 C15.0478508,30.557618 14.8046891,30.6347656 14.4804688,30.6347656 C13.832028,30.6347656 13.5078125,30.3417998 13.5078125,29.7558594 L13.5078125,29.7558594 Z M15.3710938,38 L13.5839844,38 L13.5839844,31.4492188 L15.3710938,31.4492188 L15.3710938,38 Z M19.0273438,38 L17.2402344,38 L17.2402344,28.8828125 L19.0273438,28.8828125 L19.0273438,38 Z M23.6152344,32.5976562 C23.2363262,32.5976562 22.9394542,32.7177722 22.7246094,32.9580078 C22.5097646,33.1982434 22.3867189,33.5390603 22.3554688,33.9804688 L24.8632812,33.9804688 C24.8554687,33.5390603 24.7402355,33.1982434 24.5175781,32.9580078 C24.2949208,32.7177722 23.9941425,32.5976562 23.6152344,32.5976562 L23.6152344,32.5976562 Z M23.8671875,38.1171875 C22.8124947,38.1171875 21.9882842,37.8261748 21.3945312,37.2441406 C20.8007783,36.6621065 20.5039062,35.837896 20.5039062,34.7714844 C20.5039062,33.6738226 20.7783176,32.8251983 21.3271484,32.2255859 C21.8759793,31.6259736 22.6347608,31.3261719 23.6035156,31.3261719 C24.5293015,31.3261719 25.2499974,31.5898411 25.765625,32.1171875 C26.2812526,32.6445339 26.5390625,33.3730422 26.5390625,34.3027344 L26.5390625,35.1699219 L22.3144531,35.1699219 C22.3339845,35.6777369 22.4843736,36.0742173 22.765625,36.359375 C23.0468764,36.6445327 23.4414037,36.7871094 23.9492188,36.7871094 C24.343752,36.7871094 24.7167951,36.7460942 25.0683594,36.6640625 C25.4199236,36.5820308 25.7871075,36.4511728 26.1699219,36.2714844 L26.1699219,37.6542969 C25.8574203,37.8105477 25.5234393,37.9267574 25.1679688,38.0029297 C24.8124982,38.0791019 24.3789088,38.1171875 23.8671875,38.1171875 L23.8671875,38.1171875 Z" fill="#FFFFFF"></path>
            </g>
        </g>
    </g>
</svg>