<?xml version="1.0" encoding="UTF-8" standalone="no"?>
<svg width="16px" height="16px" viewBox="0 0 16 16" version="1.1" xmlns="http://www.w3.org/2000/svg" xmlns:xlink="http://www.w3.org/1999/xlink">
    <!-- Generator: Sketch 3.6.1 (26313) - http://www.bohemiancoding.com/sketch -->
    <title>icon_dropbox</title>
    <desc>Created with Sketch.</desc>
    <defs></defs>
    <g id="Pages" stroke="none" stroke-width="1" fill="none" fill-rule="evenodd">
        <g id="icon_dropbox" fill="#000000">
            <path d="M0,8.25 L3.34375,5.703125 L0,3.171875 L4.859375,0 L8.03125,2.71875 L11.28125,0 L16,3.015625 L12.90625,5.59375 L16,8.25 L11.203125,11.140625 L8.03125,8.703125 L4.859375,11.140625 L0,8.25 Z M3.328125,12.171875 L3.328125,11.28125 L4.796875,12.140625 L8,9.70001221 L8,15.2999878 L3.328125,12.171875 Z M3.40625,5.671875 L8,8.5625 L12.625,5.5 L8.03125,2.859375 L3.40625,5.671875 Z M8,15.2999878 L8,9.734375 L8,9.70001221 L11.1875,12.140625 L12.75,11.203125 L12.75,12.1875 L8,15.2999878 Z" id="Shape"></path>
        </g>
    </g>
</svg>