<?xml version="1.0" encoding="UTF-8" standalone="no"?>
<svg width="36px" height="48px" viewBox="0 0 36 48" version="1.1" xmlns="http://www.w3.org/2000/svg" xmlns:xlink="http://www.w3.org/1999/xlink">
    <!-- Generator: Sketch 3.6.1 (26313) - http://www.bohemiancoding.com/sketch -->
    <title>icon_ppt</title>
    <desc>Created with Sketch.</desc>
    <defs></defs>
    <g id="Pages" stroke="none" stroke-width="1" fill="none" fill-rule="evenodd">
        <g id="icon_ppt">
            <g id="ppt">
                <path d="M0,3.00261497 C0,1.34431651 1.34308127,0 3.00138694,0 L22,0 L36,14.0013893 L36,44.9977643 C36,46.6558533 34.6544607,48 32.9925801,48 L3.00741988,48 C1.34646775,48 0,46.6661074 0,44.997385 L0,3.00261497 Z" id="Rectangle-32" fill="#D14424"></path>
                <path d="M22,0 L36,14 L25.9931023,14 C23.7877728,14 22,12.2126701 22,10.0068977 L22,0 Z" id="Rectangle-33" fill="#9E331A"></path>
                <path d="M11.5351562,38.1171875 C10.7656212,38.1171875 10.1621116,37.8378934 9.72460938,37.2792969 L9.63085938,37.2792969 C9.69335969,37.8261746 9.72460938,38.1425777 9.72460938,38.2285156 L9.72460938,40.8828125 L7.9375,40.8828125 L7.9375,31.4492188 L9.390625,31.4492188 L9.64257812,32.2988281 L9.72460938,32.2988281 C10.1425802,31.6503874 10.7617146,31.3261719 11.5820312,31.3261719 C12.3554726,31.3261719 12.9609353,31.624997 13.3984375,32.2226562 C13.8359397,32.8203155 14.0546875,33.6503853 14.0546875,34.7128906 C14.0546875,35.4121129 13.9521495,36.0195287 13.7470703,36.5351562 C13.5419912,37.0507838 13.2500019,37.443358 12.8710938,37.7128906 C12.4921856,37.9824232 12.0468776,38.1171875 11.5351562,38.1171875 L11.5351562,38.1171875 Z M11.0078125,32.7558594 C10.566404,32.7558594 10.2441416,32.8916002 10.0410156,33.1630859 C9.83788961,33.4345717 9.73242191,33.8828094 9.72460938,34.5078125 L9.72460938,34.7011719 C9.72460938,35.4043004 9.82910052,35.9082016 10.0380859,36.2128906 C10.2470714,36.5175796 10.5781227,36.6699219 11.03125,36.6699219 C11.8320353,36.6699219 12.2324219,36.0097722 12.2324219,34.6894531 C12.2324219,34.0449187 12.13379,33.561525 11.9365234,33.2392578 C11.7392568,32.9169906 11.4296896,32.7558594 11.0078125,32.7558594 L11.0078125,32.7558594 Z M19.1289062,38.1171875 C18.3593712,38.1171875 17.7558616,37.8378934 17.3183594,37.2792969 L17.2246094,37.2792969 C17.2871097,37.8261746 17.3183594,38.1425777 17.3183594,38.2285156 L17.3183594,40.8828125 L15.53125,40.8828125 L15.53125,31.4492188 L16.984375,31.4492188 L17.2363281,32.2988281 L17.3183594,32.2988281 C17.7363302,31.6503874 18.3554646,31.3261719 19.1757812,31.3261719 C19.9492226,31.3261719 20.5546853,31.624997 20.9921875,32.2226562 C21.4296897,32.8203155 21.6484375,33.6503853 21.6484375,34.7128906 C21.6484375,35.4121129 21.5458995,36.0195287 21.3408203,36.5351562 C21.1357412,37.0507838 20.8437519,37.443358 20.4648438,37.7128906 C20.0859356,37.9824232 19.6406276,38.1171875 19.1289062,38.1171875 L19.1289062,38.1171875 Z M18.6015625,32.7558594 C18.160154,32.7558594 17.8378916,32.8916002 17.6347656,33.1630859 C17.4316396,33.4345717 17.3261719,33.8828094 17.3183594,34.5078125 L17.3183594,34.7011719 C17.3183594,35.4043004 17.4228505,35.9082016 17.6318359,36.2128906 C17.8408214,36.5175796 18.1718727,36.6699219 18.625,36.6699219 C19.4257853,36.6699219 19.8261719,36.0097722 19.8261719,34.6894531 C19.8261719,34.0449187 19.72754,33.561525 19.5302734,33.2392578 C19.3330068,32.9169906 19.0234396,32.7558594 18.6015625,32.7558594 L18.6015625,32.7558594 Z M25.8847656,36.6933594 C26.1972672,36.6933594 26.5722634,36.6250007 27.0097656,36.4882812 L27.0097656,37.8183594 C26.5644509,38.0175791 26.0175814,38.1171875 25.3691406,38.1171875 C24.6542933,38.1171875 24.1337907,37.9365252 23.8076172,37.5751953 C23.4814437,37.2138654 23.3183594,36.6718786 23.3183594,35.9492188 L23.3183594,32.7910156 L22.4628906,32.7910156 L22.4628906,32.0351562 L23.4472656,31.4375 L23.9628906,30.0546875 L25.1054688,30.0546875 L25.1054688,31.4492188 L26.9394531,31.4492188 L26.9394531,32.7910156 L25.1054688,32.7910156 L25.1054688,35.9492188 C25.1054688,36.2031263 25.1767571,36.3906244 25.3193359,36.5117188 C25.4619148,36.6328131 25.6503895,36.6933594 25.8847656,36.6933594 L25.8847656,36.6933594 Z" fill="#FFFFFF"></path>
            </g>
        </g>
    </g>
</svg>