<?xml version="1.0" encoding="UTF-8" standalone="no"?>
<svg width="36px" height="48px" viewBox="0 0 36 48" version="1.1" xmlns="http://www.w3.org/2000/svg" xmlns:xlink="http://www.w3.org/1999/xlink">
    <!-- Generator: Sketch 3.6.1 (26313) - http://www.bohemiancoding.com/sketch -->
    <title>icon_doc</title>
    <desc>Created with Sketch.</desc>
    <defs></defs>
    <g id="Pages" stroke="none" stroke-width="1" fill="none" fill-rule="evenodd">
        <g id="icon_doc">
            <g id="doc">
                <path d="M0,3.00261497 C0,1.34431651 1.34308127,0 3.00138694,0 L22,0 L36,14.0013893 L36,44.9977643 C36,46.6558533 34.6544607,48 32.9925801,48 L3.00741988,48 C1.34646775,48 0,46.6661074 0,44.997385 L0,3.00261497 Z" id="Rectangle-32" fill="#3991C5"></path>
                <path d="M22,0 L36,14 L25.9931023,14 C23.7877728,14 22,12.2126701 22,10.0068977 L22,0 Z" id="Rectangle-33" fill="#2A6B91"></path>
                <path d="M10.0117188,38.1171875 C9.24218365,38.1171875 8.63769751,37.8183624 8.19824219,37.2207031 C7.75878687,36.6230439 7.5390625,35.7949272 7.5390625,34.7363281 C7.5390625,33.662104 7.76269308,32.8251983 8.20996094,32.2255859 C8.6572288,31.6259736 9.27343357,31.3261719 10.0585938,31.3261719 C10.8828166,31.3261719 11.5117166,31.6464812 11.9453125,32.2871094 L12.0039062,32.2871094 C11.9140621,31.7988257 11.8691406,31.3632832 11.8691406,30.9804688 L11.8691406,28.8828125 L13.6621094,28.8828125 L13.6621094,38 L12.2910156,38 L11.9453125,37.1503906 L11.8691406,37.1503906 C11.4628886,37.7949251 10.8437542,38.1171875 10.0117188,38.1171875 L10.0117188,38.1171875 Z M10.6386719,36.6933594 C11.0957054,36.6933594 11.430663,36.5605482 11.6435547,36.2949219 C11.8564464,36.0292955 11.9726562,35.5781282 11.9921875,34.9414062 L11.9921875,34.7480469 C11.9921875,34.0449184 11.8837901,33.5410171 11.6669922,33.2363281 C11.4501942,32.9316391 11.0976587,32.7792969 10.609375,32.7792969 C10.2109355,32.7792969 9.90136829,32.9482405 9.68066406,33.2861328 C9.45995983,33.6240251 9.34960938,34.1152312 9.34960938,34.7597656 C9.34960938,35.4043001 9.46093639,35.8876937 9.68359375,36.2099609 C9.90625111,36.5322282 10.2246073,36.6933594 10.6386719,36.6933594 L10.6386719,36.6933594 Z M16.9550781,34.7128906 C16.9550781,35.3613314 17.0615224,35.8515608 17.2744141,36.1835938 C17.4873058,36.5156267 17.833982,36.6816406 18.3144531,36.6816406 C18.791018,36.6816406 19.133788,36.5166032 19.3427734,36.1865234 C19.5517589,35.8564437 19.65625,35.3652376 19.65625,34.7128906 C19.65625,34.0644499 19.5507823,33.5781266 19.3398438,33.2539062 C19.1289052,32.9296859 18.7832055,32.7675781 18.3027344,32.7675781 C17.8261695,32.7675781 17.4824229,32.9287093 17.2714844,33.2509766 C17.0605458,33.5732438 16.9550781,34.0605436 16.9550781,34.7128906 L16.9550781,34.7128906 Z M21.484375,34.7128906 C21.484375,35.7793022 21.2031278,36.6132782 20.640625,37.2148438 C20.0781222,37.8164093 19.2949269,38.1171875 18.2910156,38.1171875 C17.6621062,38.1171875 17.1074243,37.9794936 16.6269531,37.7041016 C16.146482,37.4287096 15.777345,37.0332057 15.5195312,36.5175781 C15.2617175,36.0019505 15.1328125,35.4003941 15.1328125,34.7128906 C15.1328125,33.6425728 15.4121066,32.8105498 15.9707031,32.2167969 C16.5292997,31.6230439 17.3144481,31.3261719 18.3261719,31.3261719 C18.9550813,31.3261719 19.5097632,31.4628893 19.9902344,31.7363281 C20.4707055,32.009767 20.8398425,32.4023412 21.0976562,32.9140625 C21.35547,33.4257838 21.484375,34.0253872 21.484375,34.7128906 L21.484375,34.7128906 Z M25.6210938,38.1171875 C23.5820211,38.1171875 22.5625,36.9980581 22.5625,34.7597656 C22.5625,33.6464788 22.839841,32.7959014 23.3945312,32.2080078 C23.9492215,31.6201142 24.7441354,31.3261719 25.7792969,31.3261719 C26.5371132,31.3261719 27.2167939,31.4746079 27.8183594,31.7714844 L27.2910156,33.1542969 C27.0097642,33.0410151 26.7480481,32.9482425 26.5058594,32.8759766 C26.2636707,32.8037106 26.0214856,32.7675781 25.7792969,32.7675781 C24.8496047,32.7675781 24.3847656,33.4277278 24.3847656,34.7480469 C24.3847656,36.0293033 24.8496047,36.6699219 25.7792969,36.6699219 C26.1230486,36.6699219 26.4414048,36.6240239 26.734375,36.5322266 C27.0273452,36.4404292 27.320311,36.296876 27.6132812,36.1015625 L27.6132812,37.6308594 C27.3242173,37.814454 27.032228,37.9414059 26.7373047,38.0117188 C26.4423813,38.0820316 26.0703147,38.1171875 25.6210938,38.1171875 L25.6210938,38.1171875 Z" fill="#FFFFFF"></path>
            </g>
        </g>
    </g>
</svg>