<?xml version="1.0" encoding="UTF-8" standalone="no"?>
<svg width="36px" height="48px" viewBox="0 0 36 48" version="1.1" xmlns="http://www.w3.org/2000/svg" xmlns:xlink="http://www.w3.org/1999/xlink">
    <!-- Generator: Sketch 3.6.1 (26313) - http://www.bohemiancoding.com/sketch -->
    <title>icon_pdf</title>
    <desc>Created with Sketch.</desc>
    <defs></defs>
    <g id="Pages" stroke="none" stroke-width="1" fill="none" fill-rule="evenodd">
        <g id="icon_pdf">
            <g id="pdf">
                <path d="M0,3.00261497 C0,1.34431651 1.34331197,0 2.99420208,0 L20,0 L36,16.0013893 L36,45.0040298 C36,46.6586585 34.6544607,48 32.9925801,48 L3.00741988,48 C1.34646775,48 0,46.6661074 0,44.997385 L0,3.00261497 Z M12.5351562,38.1171875 C11.7656212,38.1171875 11.1621116,37.8378934 10.7246094,37.2792969 L10.6308594,37.2792969 C10.6933597,37.8261746 10.7246094,38.1425777 10.7246094,38.2285156 L10.7246094,40.8828125 L8.9375,40.8828125 L8.9375,31.4492188 L10.390625,31.4492188 L10.6425781,32.2988281 L10.7246094,32.2988281 C11.1425802,31.6503874 11.7617146,31.3261719 12.5820312,31.3261719 C13.3554726,31.3261719 13.9609353,31.624997 14.3984375,32.2226562 C14.8359397,32.8203155 15.0546875,33.6503853 15.0546875,34.7128906 C15.0546875,35.4121129 14.9521495,36.0195287 14.7470703,36.5351562 C14.5419912,37.0507838 14.2500019,37.443358 13.8710938,37.7128906 C13.4921856,37.9824232 13.0468776,38.1171875 12.5351562,38.1171875 L12.5351562,38.1171875 Z M12.0078125,32.7558594 C11.566404,32.7558594 11.2441416,32.8916002 11.0410156,33.1630859 C10.8378896,33.4345717 10.7324219,33.8828094 10.7246094,34.5078125 L10.7246094,34.7011719 C10.7246094,35.4043004 10.8291005,35.9082016 11.0380859,36.2128906 C11.2470714,36.5175796 11.5781227,36.6699219 12.03125,36.6699219 C12.8320353,36.6699219 13.2324219,36.0097722 13.2324219,34.6894531 C13.2324219,34.0449187 13.13379,33.561525 12.9365234,33.2392578 C12.7392568,32.9169906 12.4296896,32.7558594 12.0078125,32.7558594 L12.0078125,32.7558594 Z M18.6054688,38.1171875 C17.8359337,38.1171875 17.2314475,37.8183624 16.7919922,37.2207031 C16.3525369,36.6230439 16.1328125,35.7949272 16.1328125,34.7363281 C16.1328125,33.662104 16.3564431,32.8251983 16.8037109,32.2255859 C17.2509788,31.6259736 17.8671836,31.3261719 18.6523438,31.3261719 C19.4765666,31.3261719 20.1054666,31.6464812 20.5390625,32.2871094 L20.5976562,32.2871094 C20.5078121,31.7988257 20.4628906,31.3632832 20.4628906,30.9804688 L20.4628906,28.8828125 L22.2558594,28.8828125 L22.2558594,38 L20.8847656,38 L20.5390625,37.1503906 L20.4628906,37.1503906 C20.0566386,37.7949251 19.4375042,38.1171875 18.6054688,38.1171875 L18.6054688,38.1171875 Z M19.2324219,36.6933594 C19.6894554,36.6933594 20.024413,36.5605482 20.2373047,36.2949219 C20.4501964,36.0292955 20.5664062,35.5781282 20.5859375,34.9414062 L20.5859375,34.7480469 C20.5859375,34.0449184 20.4775401,33.5410171 20.2607422,33.2363281 C20.0439442,32.9316391 19.6914087,32.7792969 19.203125,32.7792969 C18.8046855,32.7792969 18.4951183,32.9482405 18.2744141,33.2861328 C18.0537098,33.6240251 17.9433594,34.1152312 17.9433594,34.7597656 C17.9433594,35.4043001 18.0546864,35.8876937 18.2773438,36.2099609 C18.5000011,36.5322282 18.8183573,36.6933594 19.2324219,36.6933594 L19.2324219,36.6933594 Z M27.7460938,32.7910156 L26.1992188,32.7910156 L26.1992188,38 L24.4121094,38 L24.4121094,32.7910156 L23.4277344,32.7910156 L23.4277344,31.9296875 L24.4121094,31.4492188 L24.4121094,30.96875 C24.4121094,30.2226525 24.5957013,29.6777361 24.9628906,29.3339844 C25.33008,28.9902327 25.9179647,28.8183594 26.7265625,28.8183594 C27.3437531,28.8183594 27.8925757,28.9101553 28.3730469,29.09375 L27.9160156,30.40625 C27.5566388,30.2929682 27.2246109,30.2363281 26.9199219,30.2363281 C26.6660144,30.2363281 26.4824224,30.3115227 26.3691406,30.4619141 C26.2558588,30.6123054 26.1992188,30.8046863 26.1992188,31.0390625 L26.1992188,31.4492188 L27.7460938,31.4492188 L27.7460938,32.7910156 Z" id="Rectangle-32" fill="#D3694D"></path>
                <path d="M20,0 L36,16 L23.9962027,16 C21.7891609,16 20,14.2111696 20,12.0037973 L20,0 Z" id="Rectangle-33" fill="#994C37"></path>
            </g>
        </g>
    </g>
</svg>