<?xml version="1.0" encoding="UTF-8" standalone="no"?>
<svg width="36px" height="48px" viewBox="0 0 36 48" version="1.1" xmlns="http://www.w3.org/2000/svg" xmlns:xlink="http://www.w3.org/1999/xlink">
    <!-- Generator: Sketch 3.6.1 (26313) - http://www.bohemiancoding.com/sketch -->
    <title>icon_pdf</title>
    <desc>Created with Sketch.</desc>
    <defs></defs>
    <g id="Pages" stroke="none" stroke-width="1" fill="none" fill-rule="evenodd">
        <g id="icon_pdf">
            <g id="pdf">
                <path d="M0,3.00261497 C0,1.34431651 1.34308127,0 3.00138694,0 L22,0 L36,14.0013893 L36,44.9977643 C36,46.6558533 34.6544607,48 32.9925801,48 L3.00741988,48 C1.34646775,48 0,46.6661074 0,44.997385 L0,3.00261497 Z" id="Rectangle-32" fill="#B8201D"></path>
                <path d="M22,0 L36,14 L25.9931023,14 C23.7877728,14 22,12.2126701 22,10.0068977 L22,0 Z" id="Rectangle-33" fill="#851715"></path>
                <path d="M11.5351562,38.1171875 C10.7656212,38.1171875 10.1621116,37.8378934 9.72460938,37.2792969 L9.63085938,37.2792969 C9.69335969,37.8261746 9.72460938,38.1425777 9.72460938,38.2285156 L9.72460938,40.8828125 L7.9375,40.8828125 L7.9375,31.4492188 L9.390625,31.4492188 L9.64257812,32.2988281 L9.72460938,32.2988281 C10.1425802,31.6503874 10.7617146,31.3261719 11.5820312,31.3261719 C12.3554726,31.3261719 12.9609353,31.624997 13.3984375,32.2226562 C13.8359397,32.8203155 14.0546875,33.6503853 14.0546875,34.7128906 C14.0546875,35.4121129 13.9521495,36.0195287 13.7470703,36.5351562 C13.5419912,37.0507838 13.2500019,37.443358 12.8710938,37.7128906 C12.4921856,37.9824232 12.0468776,38.1171875 11.5351562,38.1171875 L11.5351562,38.1171875 Z M11.0078125,32.7558594 C10.566404,32.7558594 10.2441416,32.8916002 10.0410156,33.1630859 C9.83788961,33.4345717 9.73242191,33.8828094 9.72460938,34.5078125 L9.72460938,34.7011719 C9.72460938,35.4043004 9.82910052,35.9082016 10.0380859,36.2128906 C10.2470714,36.5175796 10.5781227,36.6699219 11.03125,36.6699219 C11.8320353,36.6699219 12.2324219,36.0097722 12.2324219,34.6894531 C12.2324219,34.0449187 12.13379,33.561525 11.9365234,33.2392578 C11.7392568,32.9169906 11.4296896,32.7558594 11.0078125,32.7558594 L11.0078125,32.7558594 Z M17.6054688,38.1171875 C16.8359337,38.1171875 16.2314475,37.8183624 15.7919922,37.2207031 C15.3525369,36.6230439 15.1328125,35.7949272 15.1328125,34.7363281 C15.1328125,33.662104 15.3564431,32.8251983 15.8037109,32.2255859 C16.2509788,31.6259736 16.8671836,31.3261719 17.6523438,31.3261719 C18.4765666,31.3261719 19.1054666,31.6464812 19.5390625,32.2871094 L19.5976562,32.2871094 C19.5078121,31.7988257 19.4628906,31.3632832 19.4628906,30.9804688 L19.4628906,28.8828125 L21.2558594,28.8828125 L21.2558594,38 L19.8847656,38 L19.5390625,37.1503906 L19.4628906,37.1503906 C19.0566386,37.7949251 18.4375042,38.1171875 17.6054688,38.1171875 L17.6054688,38.1171875 Z M18.2324219,36.6933594 C18.6894554,36.6933594 19.024413,36.5605482 19.2373047,36.2949219 C19.4501964,36.0292955 19.5664062,35.5781282 19.5859375,34.9414062 L19.5859375,34.7480469 C19.5859375,34.0449184 19.4775401,33.5410171 19.2607422,33.2363281 C19.0439442,32.9316391 18.6914087,32.7792969 18.203125,32.7792969 C17.8046855,32.7792969 17.4951183,32.9482405 17.2744141,33.2861328 C17.0537098,33.6240251 16.9433594,34.1152312 16.9433594,34.7597656 C16.9433594,35.4043001 17.0546864,35.8876937 17.2773438,36.2099609 C17.5000011,36.5322282 17.8183573,36.6933594 18.2324219,36.6933594 L18.2324219,36.6933594 Z M26.7460938,32.7910156 L25.1992188,32.7910156 L25.1992188,38 L23.4121094,38 L23.4121094,32.7910156 L22.4277344,32.7910156 L22.4277344,31.9296875 L23.4121094,31.4492188 L23.4121094,30.96875 C23.4121094,30.2226525 23.5957013,29.6777361 23.9628906,29.3339844 C24.33008,28.9902327 24.9179647,28.8183594 25.7265625,28.8183594 C26.3437531,28.8183594 26.8925757,28.9101553 27.3730469,29.09375 L26.9160156,30.40625 C26.5566388,30.2929682 26.2246109,30.2363281 25.9199219,30.2363281 C25.6660144,30.2363281 25.4824224,30.3115227 25.3691406,30.4619141 C25.2558588,30.6123054 25.1992188,30.8046863 25.1992188,31.0390625 L25.1992188,31.4492188 L26.7460938,31.4492188 L26.7460938,32.7910156 Z" fill="#FFFFFF"></path>
            </g>
        </g>
    </g>
</svg>