<?xml version="1.0" encoding="utf-8"?>
<!-- Generator: Adobe Illustrator 16.0.0, SVG Export Plug-In . SVG Version: 6.00 Build 0)  -->
<!DOCTYPE svg PUBLIC "-//W3C//DTD SVG 1.1//EN" "http://www.w3.org/Graphics/SVG/1.1/DTD/svg11.dtd">
<svg version="1.1" id="Layer_1" xmlns="http://www.w3.org/2000/svg" xmlns:xlink="http://www.w3.org/1999/xlink" x="0px" y="0px"
	 width="200px" height="200px" viewBox="0 0 200 200" enable-background="new 0 0 200 200" xml:space="preserve">
<path d="M100,0C44.775,0,0,44.775,0,100s44.775,100,100,100s100-44.775,100-100S155.225,0,100,0 M112.5,156.25
	c0,3.455-2.808,6.25-6.25,6.25h-12.5c-3.455,0-6.25-2.795-6.25-6.25v-75c0-3.455,2.795-6.25,6.25-6.25h12.5
	c3.442,0,6.25,2.795,6.25,6.25V156.25z M112.5,56.25c0,3.455-2.808,6.25-6.25,6.25h-12.5c-3.455,0-6.25-2.795-6.25-6.25v-12.5
	c0-3.454,2.795-6.25,6.25-6.25h12.5c3.442,0,6.25,2.796,6.25,6.25V56.25z"/>
</svg>
