<?xml version="1.0" encoding="utf-8"?>
<!-- Generator: Adobe Illustrator 16.0.0, SVG Export Plug-In . SVG Version: 6.00 Build 0)  -->
<!DOCTYPE svg PUBLIC "-//W3C//DTD SVG 1.1//EN" "http://www.w3.org/Graphics/SVG/1.1/DTD/svg11.dtd">
<svg version="1.1" id="Layer_1" xmlns="http://www.w3.org/2000/svg" xmlns:xlink="http://www.w3.org/1999/xlink" x="0px" y="0px"
	 width="200px" height="200px" viewBox="0 0 200 200" enable-background="new 0 0 200 200" xml:space="preserve">
<path d="M25.002,0H12.503c-6.909,0-12.5,5.603-12.5,12.5v12.5v74.998v75.004V187.5c0,6.909,5.591,12.5,12.5,12.5h12.499h149.996
	h12.499c6.897,0,12.5-5.591,12.5-12.5v-12.499V99.997V24.999V12.5c0-6.897-5.603-12.5-12.5-12.5h-12.499H25.002z M100,74.998
	c13.794,0,24.999,11.224,24.999,24.999c0,13.787-11.205,25.005-24.999,25.005s-24.999-11.218-24.999-25.005
	C75.001,86.222,86.206,74.998,100,74.998 M174.998,175.001H25.002V99.997h24.999c0,27.593,22.425,50.005,49.999,50.005
	c27.562,0,49.999-22.412,49.999-50.005h24.999V175.001z M174.998,62.498h-37.499V24.999h37.499V62.498z"/>
</svg>
