<?xml version="1.0" encoding="utf-8"?>
<!-- Generator: Adobe Illustrator 16.0.0, SVG Export Plug-In . SVG Version: 6.00 Build 0)  -->
<!DOCTYPE svg PUBLIC "-//W3C//DTD SVG 1.1//EN" "http://www.w3.org/Graphics/SVG/1.1/DTD/svg11.dtd">
<svg version="1.1" id="Layer_1" xmlns="http://www.w3.org/2000/svg" xmlns:xlink="http://www.w3.org/1999/xlink" x="0px" y="0px"
	 width="200px" height="200px" viewBox="0 0 200 200" enable-background="new 0 0 200 200" xml:space="preserve">
<g>
	<rect x="6.25" y="56.244" fill-rule="evenodd" clip-rule="evenodd" width="37.5" height="137.506"/>
	<path fill-rule="evenodd" clip-rule="evenodd" d="M143.75,56.25c-23.205,0-32.239,12.5-37.928,25l0.428-25H69.141
		c0.586,12.5-0.391,137.5-0.391,137.5h37.5v-73.059c0-3.87,0.244-7.801,1.306-10.577c3.126-7.801,12.586-15.912,24.524-15.912
		c15.589,0,24.17,12.048,24.17,29.553v69.995h37.5v-75.024C193.75,78.675,171.973,56.25,143.75,56.25"/>
	<path fill-rule="evenodd" clip-rule="evenodd" d="M43.75,25c0,10.364-8.398,18.75-18.75,18.75C14.661,43.75,6.25,35.364,6.25,25
		S14.661,6.25,25,6.25C35.352,6.25,43.75,14.636,43.75,25"/>
</g>
</svg>
