<?xml version="1.0" encoding="utf-8"?>
<!-- Generator: Adobe Illustrator 16.0.0, SVG Export Plug-In . SVG Version: 6.00 Build 0)  -->
<!DOCTYPE svg PUBLIC "-//W3C//DTD SVG 1.1//EN" "http://www.w3.org/Graphics/SVG/1.1/DTD/svg11.dtd">
<svg version="1.1" id="Layer_1" xmlns="http://www.w3.org/2000/svg" xmlns:xlink="http://www.w3.org/1999/xlink" x="0px" y="0px"
	 width="200px" height="200px" viewBox="0 0 200 200" enable-background="new 0 0 200 200" xml:space="preserve">
<path d="M175,19.372v2.393L9.888,57.153C4.126,58.386,0,63.477,0,69.372v37.5c0,5.885,4.126,10.986,9.888,12.22l27.612,5.921v56.859
	c0,6.91,5.591,11.256,12.5,11.256h62.5c6.922,0,12.5-4.346,12.5-11.256v-38.109l50,10.717v2.393c0,6.91,5.591,12.5,12.5,12.5
	c6.922,0,12.5-5.59,12.5-12.5v-12.5v-112.5v-12.5c0-6.908-5.578-12.5-12.5-12.5C180.591,6.872,175,12.464,175,19.372 M62.5,168.128
	v-37.744l37.5,8.02v29.725H62.5z"/>
</svg>
