<?xml version="1.0" encoding="utf-8"?>
<!-- Generator: Adobe Illustrator 16.0.0, SVG Export Plug-In . SVG Version: 6.00 Build 0)  -->
<!DOCTYPE svg PUBLIC "-//W3C//DTD SVG 1.1//EN" "http://www.w3.org/Graphics/SVG/1.1/DTD/svg11.dtd">
<svg version="1.1" id="Layer_1" xmlns="http://www.w3.org/2000/svg" xmlns:xlink="http://www.w3.org/1999/xlink" x="0px" y="0px"
	 width="200px" height="200px" viewBox="0 0 200 200" enable-background="new 0 0 200 200" xml:space="preserve">
<path d="M12.5,0.518C5.615,0.518,0,6.865,0,13.896v137.219c0,7.02,5.615,11.902,12.5,11.902H25v29.699
	c0,7.044,5.041,8.24,11.268,5.188l67.224-34.888H187.5c6.873,0,12.5-4.883,12.5-11.902V13.896c0-7.031-5.627-13.379-12.5-13.379
	H12.5z M150,56.768c0,3.442-2.808,6.25-6.25,6.25h-87.5c-3.455,0-6.25-2.808-6.25-6.25v-12.5c0-3.442,2.795-6.25,6.25-6.25h87.5
	c3.442,0,6.25,2.808,6.25,6.25V56.768z M150,119.268c0,3.442-2.808,6.25-6.25,6.25h-87.5c-3.455,0-6.25-2.808-6.25-6.25v-12.5
	c0-3.442,2.795-6.25,6.25-6.25h87.5c3.442,0,6.25,2.808,6.25,6.25V119.268z"/>
</svg>
