<?xml version="1.0" encoding="utf-8"?>
<!-- Generator: Adobe Illustrator 16.0.0, SVG Export Plug-In . SVG Version: 6.00 Build 0)  -->
<!DOCTYPE svg PUBLIC "-//W3C//DTD SVG 1.1//EN" "http://www.w3.org/Graphics/SVG/1.1/DTD/svg11.dtd">
<svg version="1.1" id="Layer_1" xmlns="http://www.w3.org/2000/svg" xmlns:xlink="http://www.w3.org/1999/xlink" x="0px" y="0px"
	 width="200px" height="200px" viewBox="0 0 200 200" enable-background="new 0 0 200 200" xml:space="preserve">
<g>
	<path fill-rule="evenodd" clip-rule="evenodd" d="M187.5,0h-175C5.591,0,0,5.591,0,12.5V150c0,6.885,5.591,12.5,12.5,12.5h75V175
		h-25c-6.909,0-12.5,5.591-12.5,12.5c0,6.885,5.591,12.5,12.5,12.5h75c6.896,0,12.5-5.615,12.5-12.5c0-6.909-5.604-12.5-12.5-12.5
		h-25v-12.5h75c6.896,0,12.5-5.615,12.5-12.5V12.5C200,5.591,194.396,0,187.5,0 M175,137.5H25V25h150V137.5z"/>
	<path fill-rule="evenodd" clip-rule="evenodd" d="M56.25,75h87.5c3.442,0,6.25-2.808,6.25-6.25v-12.5c0-3.467-2.808-6.25-6.25-6.25
		h-87.5C52.795,50,50,52.783,50,56.25v12.5C50,72.192,52.795,75,56.25,75"/>
	<path fill-rule="evenodd" clip-rule="evenodd" d="M56.25,112.5h87.5c3.442,0,6.25-2.808,6.25-6.25v-12.5
		c0-3.467-2.808-6.25-6.25-6.25h-87.5c-3.455,0-6.25,2.783-6.25,6.25v12.5C50,109.692,52.795,112.5,56.25,112.5"/>
</g>
</svg>
