<?xml version="1.0" encoding="utf-8"?>
<!-- Generator: Adobe Illustrator 16.0.0, SVG Export Plug-In . SVG Version: 6.00 Build 0)  -->
<!DOCTYPE svg PUBLIC "-//W3C//DTD SVG 1.1//EN" "http://www.w3.org/Graphics/SVG/1.1/DTD/svg11.dtd">
<svg version="1.1" id="Layer_1" xmlns="http://www.w3.org/2000/svg" xmlns:xlink="http://www.w3.org/1999/xlink" x="0px" y="0px"
	 width="200px" height="200px" viewBox="0 0 200 200" enable-background="new 0 0 200 200" xml:space="preserve">
<path d="M100,0.102c-55.225,0-100,44.775-100,100c0,53.875,42.627,97.673,95.978,99.787c-0.329,0.049,5.713-0.111,6.562-0.293
	c14.038-1.148,28.076-5.055,41.138-12.5c6.006-3.492,8.13-11.109,4.639-17.115c-3.369-6.006-11.011-8.129-17.017-4.627
	c-10.938,6.117-22.559,9.145-34.326,9.607C56.988,173.338,25,140.5,25,100.102c0-41.424,33.588-75,75-75c41.431,0,75,33.576,75,75
	v12.505c0,6.896-5.615,12.5-12.5,12.5s-12.5-5.604-12.5-12.5v-12.505c0-27.612-22.388-50-50-50s-50,22.388-50,50
	c0,27.619,22.388,50.005,50,50.005c13.135,0,25-5.176,33.936-13.477c6.885,8.18,17.041,13.477,28.564,13.477
	c20.703,0,37.5-17.188,37.5-39.453v-10.552C200,44.877,155.225,0.102,100,0.102 M100,125.107c-13.8,0-25-11.219-25-25.005
	c0-13.776,11.2-25,25-25c13.794,0,25,11.224,25,25C125,113.889,113.794,125.107,100,125.107"/>
</svg>
