<?xml version="1.0" encoding="utf-8"?>
<!-- Generator: Adobe Illustrator 16.0.0, SVG Export Plug-In . SVG Version: 6.00 Build 0)  -->
<!DOCTYPE svg PUBLIC "-//W3C//DTD SVG 1.1//EN" "http://www.w3.org/Graphics/SVG/1.1/DTD/svg11.dtd">
<svg version="1.1" id="Layer_1" xmlns="http://www.w3.org/2000/svg" xmlns:xlink="http://www.w3.org/1999/xlink" x="0px" y="0px"
	 width="200px" height="200px" viewBox="0 0 200 200" enable-background="new 0 0 200 200" xml:space="preserve">
<path fill-rule="evenodd" clip-rule="evenodd" d="M162.5,87.502c-13.471,0-25.177-7.172-31.793-17.835L74.464,94.648
	C74.713,96.413,75,98.171,75,99.998c0,2.747-0.329,5.396-0.897,7.972l55.384,24.597c6.286-11.877,18.634-20.068,33.014-20.068
	c20.709,0,37.5,16.785,37.5,37.5c0,20.703-16.791,37.5-37.5,37.5s-37.5-16.797-37.5-37.5c0-1.831,0.287-3.589,0.538-5.347
	l-56.245-24.987c-6.604,10.669-18.322,17.834-31.793,17.834c-20.709,0-37.5-16.797-37.5-37.5c0-20.711,16.791-37.503,37.5-37.503
	c14.386,0,26.715,8.192,33.014,20.069l55.384-24.604c-0.562-2.57-0.897-5.225-0.897-7.966c0-20.703,16.791-37.493,37.5-37.493
	S200,29.292,200,49.995C200,70.711,183.209,87.502,162.5,87.502 M162.5,174.998c13.806,0,25-11.193,25-25c0-13.806-11.194-25-25-25
	s-25,11.194-25,25C137.5,163.805,148.694,174.998,162.5,174.998 M37.5,74.995c-13.806,0-25,11.2-25,25.003c0,13.807,11.194,25,25,25
	s25-11.193,25-25C62.5,86.195,51.306,74.995,37.5,74.995 M162.5,24.995c-13.806,0-25,11.194-25,25c0,13.812,11.194,25,25,25
	s25-11.188,25-25C187.5,36.189,176.306,24.995,162.5,24.995"/>
</svg>
