<?xml version="1.0" encoding="utf-8"?>
<!-- Generator: Adobe Illustrator 16.0.0, SVG Export Plug-In . SVG Version: 6.00 Build 0)  -->
<!DOCTYPE svg PUBLIC "-//W3C//DTD SVG 1.1//EN" "http://www.w3.org/Graphics/SVG/1.1/DTD/svg11.dtd">
<svg version="1.1" id="Layer_1" xmlns="http://www.w3.org/2000/svg" xmlns:xlink="http://www.w3.org/1999/xlink" x="0px" y="0px"
	 width="200px" height="200px" viewBox="0 0 200 200" enable-background="new 0 0 200 200" xml:space="preserve">
<g>
	<path d="M194.738,78.947h-15.791V63.158c0-2.899-2.354-5.264-5.262-5.264h-10.527c-2.908,0-5.264,2.364-5.264,5.264v15.789h-15.789
		c-2.908,0-5.264,2.364-5.264,5.264v10.525c0,2.91,2.355,5.264,5.264,5.264h15.789v15.789c0,2.909,2.355,5.264,5.264,5.264h10.527
		c2.908,0,5.262-2.354,5.262-5.264V100h15.791c2.908,0,5.262-2.354,5.262-5.264V84.211C200,81.312,197.646,78.947,194.738,78.947"/>
	<path d="M94.737,112.253v-7.565c12.531-7.299,21.052-20.724,21.052-36.267V57.895c0-23.252-18.853-42.105-42.105-42.105
		c-23.253,0-42.105,18.854-42.105,42.105v10.526c0,15.543,8.526,28.968,21.052,36.267v7.565C16.329,118.112,0,138.651,0,163.158
		v10.526c0,5.828,4.718,10.526,10.526,10.526h126.315c5.809,0,10.527-4.698,10.527-10.526v-10.526
		C147.369,138.651,131.045,118.112,94.737,112.253"/>
</g>
</svg>
