<?xml version="1.0" encoding="utf-8"?>
<!-- Generator: Adobe Illustrator 16.0.0, SVG Export Plug-In . SVG Version: 6.00 Build 0)  -->
<!DOCTYPE svg PUBLIC "-//W3C//DTD SVG 1.1//EN" "http://www.w3.org/Graphics/SVG/1.1/DTD/svg11.dtd">
<svg version="1.1" id="Layer_1" xmlns="http://www.w3.org/2000/svg" xmlns:xlink="http://www.w3.org/1999/xlink" x="0px" y="0px"
	 width="200px" height="200px" viewBox="0 0 200 200" enable-background="new 0 0 200 200" xml:space="preserve">
<g>
	<path fill-rule="evenodd" clip-rule="evenodd" d="M112.5,125.002L66.907,79.429c-2.44-2.454-6.384-2.454-8.837,0L41.908,95.578
		c-2.441,2.453-4.406,7.227-4.406,10.668v50.005c0,3.442,2.795,6.25,6.25,6.25h112.496c3.442,0,6.25-2.808,6.25-6.25v-24.999
		c0-3.442-1.978-8.228-4.431-10.669l-16.162-16.155c-2.441-2.453-6.384-2.453-8.838,0L112.5,125.002z"/>
	<path fill-rule="evenodd" clip-rule="evenodd" d="M131.249,87.497c10.339,0,18.749-8.398,18.749-18.75
		c0-10.351-8.41-18.749-18.749-18.749c-10.352,0-18.749,8.398-18.749,18.749C112.5,79.099,120.897,87.497,131.249,87.497"/>
	<path fill-rule="evenodd" clip-rule="evenodd" d="M187.497,0H12.503c-6.909,0-12.5,5.591-12.5,12.499V187.5
		c0,6.909,5.591,12.5,12.5,12.5h174.994c6.896,0,12.5-5.591,12.5-12.5V12.499C199.997,5.591,194.394,0,187.497,0 M174.998,175
		H25.002V24.999h149.996V175z"/>
</g>
</svg>
