<?xml version="1.0" encoding="utf-8"?>
<!-- Generator: Adobe Illustrator 16.0.0, SVG Export Plug-In . SVG Version: 6.00 Build 0)  -->
<!DOCTYPE svg PUBLIC "-//W3C//DTD SVG 1.1//EN" "http://www.w3.org/Graphics/SVG/1.1/DTD/svg11.dtd">
<svg version="1.1" id="Layer_1" xmlns="http://www.w3.org/2000/svg" xmlns:xlink="http://www.w3.org/1999/xlink" x="0px" y="0px"
	 width="200px" height="200px" viewBox="0 0 200 200" enable-background="new 0 0 200 200" xml:space="preserve">
<path d="M190,80.001h-70.006V10.004c0-5.526-4.473-9.999-9.999-9.999h-20c-5.517,0-9.999,4.473-9.999,9.999v69.997H9.999
	C4.482,80.001,0,84.475,0,90v20c0,5.525,4.482,9.999,9.999,9.999h69.998v69.997c0,5.526,4.482,9.999,9.999,9.999h20
	c5.526,0,9.999-4.473,9.999-9.999v-69.997H190c5.508,0,10-4.474,10-9.999V90C200,84.475,195.508,80.001,190,80.001"/>
</svg>
