<?xml version="1.0" encoding="utf-8"?>
<!-- Generator: Adobe Illustrator 16.0.0, SVG Export Plug-In . SVG Version: 6.00 Build 0)  -->
<!DOCTYPE svg PUBLIC "-//W3C//DTD SVG 1.1//EN" "http://www.w3.org/Graphics/SVG/1.1/DTD/svg11.dtd">
<svg version="1.1" id="Layer_1" xmlns="http://www.w3.org/2000/svg" xmlns:xlink="http://www.w3.org/1999/xlink" x="0px" y="0px"
	 width="200px" height="200px" viewBox="0 0 200 200" enable-background="new 0 0 200 200" xml:space="preserve">
<path d="M100,0C44.775,0,0,44.775,0,100s44.775,100,100,100s100-44.775,100-100S155.225,0,100,0 M112.5,156.25
	c0,3.455-2.808,6.25-6.25,6.25h-12.5c-3.455,0-6.25-2.795-6.25-6.25v-12.5c0-3.455,2.795-6.25,6.25-6.25h12.5
	c3.442,0,6.25,2.795,6.25,6.25V156.25z M112.5,110.352v8.398c0,3.455-2.808,6.25-6.25,6.25h-12.5c-3.455,0-6.25-2.795-6.25-6.25V100
	c0-6.909,1.562-12.5,9.375-12.5h9.375c3.442,0,6.25-2.796,6.25-6.25v-12.5c0-3.454-2.808-6.25-6.25-6.25h-12.5
	c-3.455,0-6.25,2.796-6.25,6.25c0,1.733-1.184,6.25-6.25,6.25h-12.5c-4.688,0-6.299-2.808-5.737-6.226
	C65.979,51.05,81.445,37.5,100,37.5c20.666,0,37.5,16.821,37.5,37.5C137.5,91.296,127.051,105.2,112.5,110.352"/>
</svg>
