<?xml version="1.0" encoding="utf-8"?>
<!-- Generator: Adobe Illustrator 16.0.0, SVG Export Plug-In . SVG Version: 6.00 Build 0)  -->
<!DOCTYPE svg PUBLIC "-//W3C//DTD SVG 1.1//EN" "http://www.w3.org/Graphics/SVG/1.1/DTD/svg11.dtd">
<svg version="1.1" id="Layer_1" xmlns="http://www.w3.org/2000/svg" xmlns:xlink="http://www.w3.org/1999/xlink" x="0px" y="0px"
	 width="200px" height="200px" viewBox="0 0 200 200" enable-background="new 0 0 200 200" xml:space="preserve">
<path fill-rule="evenodd" clip-rule="evenodd" d="M196.328,178.658l-38.889-38.646c-0.025-0.023-0.049-0.023-0.074-0.049
	c11.023-14.648,17.627-32.774,17.627-52.463c0-48.24-39.256-87.496-87.497-87.496C39.268,0.005,0,39.261,0,87.501
	s39.268,87.495,87.495,87.495c19.701,0,37.816-6.615,52.464-17.626c0.025,0.024,0.025,0.049,0.049,0.073l38.645,38.89
	c2.441,2.441,5.641,3.662,8.838,3.662c3.211,0,6.408-1.221,8.838-3.662C201.224,191.45,201.224,183.541,196.328,178.658
	 M87.495,149.998c-34.446,0-62.497-28.039-62.497-62.497c0-34.459,28.051-62.497,62.497-62.497
	c34.471,0,62.497,28.038,62.497,62.497C149.992,121.959,121.966,149.998,87.495,149.998"/>
</svg>
