<?xml version="1.0" encoding="UTF-8" standalone="no"?>
<svg width="16px" height="16px" viewBox="0 0 16 16" version="1.1" xmlns="http://www.w3.org/2000/svg" xmlns:xlink="http://www.w3.org/1999/xlink">
    <!-- Generator: Sketch 3.6.1 (26313) - http://www.bohemiancoding.com/sketch -->
    <title>Icons/Show</title>
    <desc>Created with Sketch.</desc>
    <defs></defs>
    <g id="Style" stroke="none" stroke-width="1" fill="none" fill-rule="evenodd">
        <g id="ICONS" transform="translate(-54.000000, -436.000000)" fill="#000000">
            <g id="Icons/Show" transform="translate(54.000000, 436.000000)">
                <path d="M14,11 L13,11 L13,4 C13,3.447 12.552,3 12,3 L5,3 L5,2 L14,2 L14,11 Z M2,14 L11,14 L11,5 L2,5 L2,14 Z M15,0 L4,0 C3.448,0 3,0.447 3,1 L3,3 L1,3 C0.448,3 0,3.447 0,4 L0,15 C0,15.553 0.448,16 1,16 L12,16 C12.552,16 13,15.553 13,15 L13,13 L15,13 C15.552,13 16,12.553 16,12 L16,1 C16,0.447 15.552,0 15,0 L15,0 Z" id="Fill-1"></path>
                <path d="M7.5,12 L8.5,12 C8.776,12 9,11.776 9,11.5 L9,10.5 C9,10.224 8.776,10 8.5,10 L7.5,10 C7.224,10 7,10.224 7,10.5 L7,11.5 C7,11.776 7.224,12 7.5,12" id="Fill-3"></path>
                <path d="M4.5,12 L5.5,12 C5.776,12 6,11.776 6,11.5 L6,10.5 C6,10.224 5.776,10 5.5,10 L4.5,10 C4.224,10 4,10.224 4,10.5 L4,11.5 C4,11.776 4.224,12 4.5,12" id="Fill-5"></path>
                <path d="M7.5,9 L8.5,9 C8.776,9 9,8.776 9,8.5 L9,7.5 C9,7.224 8.776,7 8.5,7 L7.5,7 C7.224,7 7,7.224 7,7.5 L7,8.5 C7,8.776 7.224,9 7.5,9" id="Fill-7"></path>
                <path d="M4.5,9 L5.5,9 C5.776,9 6,8.776 6,8.5 L6,7.5 C6,7.224 5.776,7 5.5,7 L4.5,7 C4.224,7 4,7.224 4,7.5 L4,8.5 C4,8.776 4.224,9 4.5,9" id="Fill-9"></path>
            </g>
        </g>
    </g>
</svg>