<?xml version="1.0" encoding="utf-8"?>
<!-- Generator: Adobe Illustrator 16.0.0, SVG Export Plug-In . SVG Version: 6.00 Build 0)  -->
<!DOCTYPE svg PUBLIC "-//W3C//DTD SVG 1.1//EN" "http://www.w3.org/Graphics/SVG/1.1/DTD/svg11.dtd">
<svg version="1.1" id="Layer_1" xmlns="http://www.w3.org/2000/svg" xmlns:xlink="http://www.w3.org/1999/xlink" x="0px" y="0px"
	 width="200px" height="200px" viewBox="0 0 200 200" enable-background="new 0 0 200 200" xml:space="preserve">
<path d="M196.352,161.316l-61.317-61.317l61.317-61.314c4.864-4.864,4.864-12.68,0-17.521l-17.52-17.52
	c-4.815-4.839-12.68-4.839-17.519,0L99.996,64.962L38.705,3.645c-4.864-4.839-12.705-4.839-17.521,0l-17.52,17.52
	c-4.888,4.841-4.888,12.656,0,17.521l61.294,61.314L3.665,161.316c-4.888,4.839-4.888,12.68,0,17.519l17.52,17.52
	c4.815,4.841,12.656,4.841,17.521,0l61.291-61.317l61.317,61.317c4.839,4.841,12.703,4.841,17.519,0l17.52-17.52
	C201.216,173.996,201.216,166.155,196.352,161.316"/>
</svg>
