<?xml version="1.0" encoding="utf-8"?>
<!-- Generator: Adobe Illustrator 16.0.0, SVG Export Plug-In . SVG Version: 6.00 Build 0)  -->
<!DOCTYPE svg PUBLIC "-//W3C//DTD SVG 1.1//EN" "http://www.w3.org/Graphics/SVG/1.1/DTD/svg11.dtd">
<svg version="1.1" id="Layer_1" xmlns="http://www.w3.org/2000/svg" xmlns:xlink="http://www.w3.org/1999/xlink" x="0px" y="0px"
	 width="200px" height="200px" viewBox="0 0 200 200" enable-background="new 0 0 200 200" xml:space="preserve">
<path d="M200,37.945c-7.363,3.278-15.276,5.464-23.579,6.478c8.486-5.086,14.994-13.114,18.071-22.718
	c-7.949,4.713-16.74,8.138-26.082,9.964c-7.485-7.986-18.17-12.968-29.953-12.968c-22.675,0-41.053,18.396-41.053,41.053
	c0,3.224,0.354,6.35,1.062,9.353c-34.116-1.715-64.375-18.041-84.62-42.878c-3.505,6.057-5.531,13.108-5.531,20.637
	c0,14.237,9.476,26.778,20.501,34.159c-6.74-0.214-16.374-2.075-16.374-5.152v0.537c0,19.879,11.918,36.461,30.686,40.246
	c-3.443,0.929-8.182,1.441-11.93,1.441c-2.638,0-5.764-0.269-8.279-0.758c5.227,16.313,20.111,28.183,38.062,28.524
	c-14.043,10.99-31.895,17.56-51.114,17.56c-3.321,0-6.655-0.195-9.866-0.562c18.169,11.624,39.709,18.438,62.885,18.438
	c75.512,0,116.771-62.543,116.771-116.783c0-1.789-0.049-3.56-0.134-5.324C187.545,53.404,194.492,46.175,200,37.945"/>
</svg>
