<svg id="Layer_1" data-name="Layer 1" xmlns="http://www.w3.org/2000/svg" viewBox="0 0 200.5 200.5"><defs><style>.cls-1{fill-rule:evenodd;}</style></defs><title>icons-artboards_unarchive</title><path d="M1578.6,20a20,20,0,0,1,20-20h160.59a20,20,0,0,1,20,20V180.54a20,20,0,0,1-20,20H1598.56a20,20,0,0,1-20-20V20Zm20.05,0h0V180.54c0-.09,0-0.09-0.09-0.09h160.59c-0.09,0-.09,0-0.09.09V20c0,0.09,0,.09.09,0.09H1598.56C1598.64,20.05,1598.65,20,1598.65,20Z" transform="translate(-1578.6)"/><path class="cls-1" d="M1688.87,110.23v34.86a5.22,5.22,0,0,1-5,5.24h-10a5.22,5.22,0,0,1-5-5.24V110.23h-23.46c-6.22,0-8.42-4.42-5-9.43l32.28-47c3.41-5,9-4.83,12.43.08l32.28,46.93c3.41,4.89,1.2,9.41-5,9.41h-23.46Z" transform="translate(-1578.6)"/><path class="cls-1" d="M1598.65,140.35h30a10.06,10.06,0,0,1,10.12,10.12v30h-40.1v-40.1Z" transform="translate(-1578.6)"/><path class="cls-1" d="M1718.95,150.47a10.06,10.06,0,0,1,10.12-10.12h30v40.1h-40.1v-30Z" transform="translate(-1578.6)"/></svg>