<?xml version="1.0" encoding="utf-8"?>
<!-- Generator: Adobe Illustrator 16.0.0, SVG Export Plug-In . SVG Version: 6.00 Build 0)  -->
<!DOCTYPE svg PUBLIC "-//W3C//DTD SVG 1.1//EN" "http://www.w3.org/Graphics/SVG/1.1/DTD/svg11.dtd">
<svg version="1.1" id="Layer_1" xmlns="http://www.w3.org/2000/svg" xmlns:xlink="http://www.w3.org/1999/xlink" x="0px" y="0px"
	 width="200px" height="200px" viewBox="0 0 200 200" enable-background="new 0 0 200 200" xml:space="preserve">
<path fill-rule="evenodd" clip-rule="evenodd" d="M187.5,12.503h-175c-6.909,0-12.5,5.591-12.5,12.5v149.994
	c0,6.909,5.591,12.5,12.5,12.5h175c6.909,0,12.5-5.591,12.5-12.5V25.003C200,18.094,194.409,12.503,187.5,12.503 M175,62.503h-25
	v-25h25V62.503z M175,112.497h-25V87.503h25V112.497z M25,37.503h25v25H25V37.503z M25,87.503h25v24.994H25V87.503z M25,137.497h25
	v25H25V137.497z M75,37.503h50v124.994H75V37.503z M175,162.497h-25v-25h25V162.497z"/>
</svg>
